<svg t="1592294367420" class="icon" viewBox="0 0 1024 1024" version="1.1" xmlns="http://www.w3.org/2000/svg" p-id="5645" width="128" height="128"><path d="M864 224H109.248l73.408-73.344a32 32 0 1 0-45.312-45.312l-128 128c-0.192 0.256-0.256 0.576-0.512 0.832a31.872 31.872 0 0 0-8.832 21.76V256c0 0.32 0.192 0.576 0.192 0.896a31.872 31.872 0 0 0 9.344 21.824l127.808 127.872a31.872 31.872 0 0 0 45.312 0 32 32 0 0 0 0-45.248L109.312 288H864c52.928 0 96 43.072 96 96v384c0 52.928-43.072 96-96 96h-704c-52.928 0-96-43.072-96-96v-44.032a32 32 0 1 0-64 0V768c0 88.192 71.744 160 160 160h704c88.256 0 160-71.808 160-160V384c0-88.192-71.744-160-160-160z" fill="#A1A1A1" p-id="5646"></path></svg>