<svg t="1593509431035" class="icon" viewBox="0 0 1024 1024" version="1.1" xmlns="http://www.w3.org/2000/svg" p-id="5968" width="48" height="48"><path d="M988.6 390.4l-145.6-145.6-1.8-1.8L307.4 1.4l-2.6-1.2-16.6-0.2c-7.2 0-19.2 0-30 11L36.8 251.4C26 262.2 26 274 26 281.2v145.4c0 21.4 19.4 40.8 40.8 40.8h186.8v449.4H104.8c-27.6 0-53.6 26-53.6 53.6s26 53.6 53.6 53.6h518.6c27.6 0 53.6-26 53.6-53.6s-26-53.6-53.6-53.6h-148.8v-342h54c27.6 0 53.6-26 53.6-53.6v-54h291.4v237.4c0 21.4 19.4 40.8 40.8 40.8s40.8-19.4 40.8-40.8v-250h3.4c7.2 0 19 0 30-10.8 6-6 9.2-15.6 9.2-26.8s-3.2-20.8-9.2-26.6z m-741.2-4.6h-146V322h146v63.8z m6.4-139.2H153l100.8-109v109z m394.2 0h-186.4l-71-119.8L648 246.6z m-318.8 0V184.2l38.6 62.6-38.6-0.2z m69.6 670.4h-69.6V581.4h69.6v335.6z m91.8-433.4h-145.4v-145.4h50.4l95 95v50.4z m95-97.8L522 322h284.8l63.8 63.8H585.6z" p-id="5969" fill="#2CC7C7"></path></svg>