<svg t="1593847758975" class="icon" viewBox="0 0 1024 1024" version="1.1" xmlns="http://www.w3.org/2000/svg" p-id="2075" width="48" height="48"><path d="M321.465 726.219l52.891-52.892 50.487 50.487-52.891 52.891zM408.865 574.9l52.892-52.892 82.447 82.448-52.89 52.891zM560.11 487.494l52.884-52.898 50.494 50.48-52.884 52.898zM647.446 336.253l52.89-52.891 82.449 82.448-52.891 52.891z" fill="#83BDFC" p-id="2076"></path><path d="M290.5 958.4L62.7 730.6 730.3 63l227.8 227.8-667.6 667.6z m-122-227.8l122 122 561.8-561.8-122-122-561.8 561.8z" fill="#237AE8" p-id="2077"></path><path d="M920.9 919.6H419.1l501.8-501.8v501.8z m-321.2-74.8h246.4V598.4L599.7 844.8z" fill="#237AE8" p-id="2078"></path></svg>