<svg t="1593509369474" class="icon" viewBox="0 0 1024 1024" version="1.1" xmlns="http://www.w3.org/2000/svg" p-id="5236" width="48" height="48"><path d="M513.8592 103.69813333L866.66666667 256.6848v198.14293333c0 319.5296-270.06613333 441.9584-352.80746667 471.88586667-82.74666667-29.9264-352.81386667-152.46506667-352.81386667-471.88586667l0.20906667-198.77333333 352.6048-152.35626667m0-58.80426666a57.82826667 57.82826667 0 0 0-23.2064 4.83093333L137.84 202.29653333c-21.63093333 9.34186667-35.5968 30.76266667-35.5968 54.496v198.1376c0 361.42826667 309.0272 497.40266667 391.55733333 527.22453334a58.0448 58.0448 0 0 0 20.05866667 3.57226666c6.71466667 0 13.43786667-1.15306667 20.05013333-3.57333333 82.5376-29.8208 391.55946667-165.7952 391.55946667-527.22346667V256.79253333c0-23.73333333-14.06933333-45.15413333-35.59786667-54.496L537.06346667 49.7248a57.79626667 57.79626667 0 0 0-23.20426667-4.83093333zM274.37866667 350.4064h61.53386666v-98.34986667h48.91093334v98.34986667h49.96266666v47.86026667h-49.96266666v22.61546666c21.03786667 21.0368 42.07466667 44.704 63.11146666 71.00053334l-28.40106666 42.60053333c-12.97493333-25.24586667-24.54613333-46.28266667-34.7104-63.11253333v262.96533333h-48.91093334V500.29653333c-14.3808 42.42773333-32.26346667 82.2272-53.64586666 119.38666667l-21.56373334-55.22346667c33.65973333-48.032 58.37866667-103.42826667 74.15786667-166.1952H274.37866667v-47.85813333z m234.56533333 66.26773333c-18.58986667 18.5888-37.34186667 34.53866667-56.2752 47.86133334l-26.8224-42.07573334c60.65493333-43.1264 107.29066667-99.74613333 139.89866667-169.87733333h46.2816c27.34826667 64.16533333 74.8544 120.6208 142.528 169.35146667l-27.34933334 42.07573333c-20.33813333-14.7264-38.74666667-29.97866667-55.22346666-45.7568v27.8752H508.94506667v-29.45386667zM437.94453333 673.856h180.39466667c19.632-53.64373333 37.15946667-120.784 52.592-201.43253333l47.33333333 12.09706666c-13.32906667 68.3712-30.33066667 131.48266667-51.01546666 189.33546667h75.20853333v48.3872H437.94453333v-48.3872z m67.3184-187.232c14.37333333 46.98986667 26.64213333 98.00533333 36.816 153.0464l-43.65226666 11.57013333c-9.8208-52.23893333-21.9168-102.2016-36.2912-149.89013333l43.12746666-14.7264z m148.83946667-86.77866667c-26.29546667-29.09866667-48.03946667-61.70666667-65.216-97.824-18.93333333 37.16906667-40.49493333 69.776-64.68906667 97.824h129.90506667z m-69.9488 68.3712c12.62293333 41.02186667 24.36586667 89.93386667 35.2384 146.73493334l-45.22986667 12.096a1279.02826667 1279.02826667 0 0 0-32.608-145.15733334l42.59946667-13.67466666z" fill="#9C8BF5" p-id="5237"></path></svg>