<svg t="1593509726638" class="icon" viewBox="0 0 1024 1024" version="1.1" xmlns="http://www.w3.org/2000/svg" p-id="9220" width="48" height="48"><path d="M298.666667 725.333333l64 64h-108.138667l-48.469333 106.666667H640v64H106.666667l106.666666-234.666667h85.333334z m512 0l106.666666 234.666667H704v-64h113.92l-48.469333-106.666667H661.333333l64-64h85.333334zM512 85.333333c176.725333 0 320 143.274667 320 320 0 81.92-30.805333 156.672-81.450667 213.290667l-26.005333 28.693333C680.533333 695.488 609.664 771.264 512 874.666667l-91.093333-96.682667c-70.293333-74.858667-119.530667-128.064-147.690667-159.616A318.805333 318.805333 0 0 1 192 405.333333c0-74.112 25.194667-142.357333 67.498667-196.586666l45.674666 45.696A254.848 254.848 0 0 0 256 405.333333c0 63.786667 23.338667 123.797333 64.96 170.410667l28.416 31.36a12034.773333 12034.773333 0 0 0 86.826667 93.653333L512 781.397333l107.306667-114.453333a7545.493333 7545.493333 0 0 0 77.653333-84.416l5.930667-6.570667A254.762667 254.762667 0 0 0 768 405.333333c0-141.376-114.624-256-256-256a254.933333 254.933333 0 0 0-162.901333 58.517334l-45.44-45.418667A318.741333 318.741333 0 0 1 512 85.333333z" fill="#666666" p-id="9221"></path><path d="M490.666667 277.333333v277.333334h-64v-192l-42.666667 42.666666-42.666667-42.666666 85.333334-85.333334h64z m42.666666 277.333334V277.333333h64v192l42.666667-42.666666 42.666667 42.666666-85.333334 85.333334h-64z" fill="#FACA0C" p-id="9222"></path></svg>