<svg t="1593848184558" class="icon" viewBox="0 0 1024 1024" version="1.1" xmlns="http://www.w3.org/2000/svg" p-id="6777" width="48" height="48"><path d="M452.59548 1020.880138l-382.801612-108.413056A76.503443 76.503443 0 0 1 14.222222 838.921393V234.288238a76.560322 76.560322 0 0 1 76.446563-76.503443 75.365845 75.365845 0 0 1 21.045557 2.957754l371.311875 105.114024V76.503443A69.109058 69.109058 0 0 1 549.916959 0a77.015361 77.015361 0 0 1 21.045557 2.957754l382.744732 108.356177a76.503443 76.503443 0 0 1 55.912925 73.602568v604.633156a76.560322 76.560322 0 0 1-76.446563 76.503442 75.365845 75.365845 0 0 1-21.045556-2.957754l-361.812935-102.383789v186.679776a76.389683 76.389683 0 0 1-97.49212 73.545688zM81.738643 841.822267l400.661895 117.855117v-378.194341h0.625679v-4.66415l67.004502-25.425308 0.853198 143.792344 403.847169 108.356177-0.966958-630.285983L550.030719 64.843067v310.84856l-67.004502 25.084028v-0.966958h-0.625679V336.501387L81.738643 227.519532v614.302735z m104.886504-254.139317a36.061846 36.061846 0 0 1 28.155542-43.968149l573.51986-187.134815c20.135479-6.598066 44.878228-7.451265 51.191894 12.513574a38.166401 38.166401 0 0 1-24.515229 48.177261L232.129054 607.761549a46.470864 46.470864 0 0 1-14.333731 2.388955 31.340815 31.340815 0 0 1-31.170176-22.695073z" p-id="6778" fill="#9C8BF5"></path></svg>