<svg t="1593509273588" class="icon" viewBox="0 0 1024 1024" version="1.1" xmlns="http://www.w3.org/2000/svg" p-id="4097" width="48" height="48"><path d="M204.8 596.992H72.704V196.608h568.832V596.48H509.952c-19.968 0-36.352 16.384-36.352 36.352s16.384 36.352 36.352 36.352h167.936c19.968 0 36.352-16.384 36.352-36.352V123.904H0v508.928h0.512v0.512c0 19.968 16.384 36.352 36.352 36.352H204.8c19.968 0 36.352-16.384 36.352-36.352s-16.384-36.352-36.352-36.352z m818.688-205.824v-0.512c0-19.968-16.384-36.352-36.352-36.352H819.2c-19.968 0-36.352 16.384-36.352 36.352s16.384 36.352 36.352 36.352h132.096v400.384H382.464V427.52h131.584c19.968 0 36.352-16.384 36.352-36.352s-16.384-36.352-36.352-36.352H346.112c-19.968 0-36.352 16.384-36.352 36.352v508.928H1024V391.168h-0.512z" fill="#56A5FD" p-id="4098"></path></svg>