<svg t="1588152880437" class="icon" viewBox="0 0 1024 1024" version="1.1" xmlns="http://www.w3.org/2000/svg" p-id="1923" width="128" height="128"><path d="M670.381852 845.368889a21.162667 21.162667 0 0 0-19.797333-22.755556H373.421852a21.162667 21.162667 0 0 0-19.797333 22.755556v89.201778h-197.973333V1024h712.704v-89.429333h-197.973334v-89.201778zM947.544519 0H76.461852A77.368889 77.368889 0 0 0 0.003186 78.051556v623.502222a77.368889 77.368889 0 0 0 76.458666 78.051555h871.082667A77.368889 77.368889 0 0 0 1024.003186 701.553778V78.051556A77.368889 77.368889 0 0 0 947.544519 0z m-11.150222 100.352v578.673778a10.695111 10.695111 0 0 1-10.695111 10.922666H98.307186a10.695111 10.695111 0 0 1-10.695111-10.922666V100.352a10.922667 10.922667 0 0 1 10.695111-10.922667h827.392a10.922667 10.922667 0 0 1 10.695111 10.922667z" p-id="1924" fill="#ffffff"></path><path d="M724.540075 636.472889h117.646222V353.848889h-117.646222v282.624zM535.896519 636.472889h117.873778V287.175111h-117.873778v349.297778zM182.502741 636.472889h117.873778V527.928889H182.502741v108.544zM347.480519 636.472889h117.873778v-195.697778h-117.873778v195.697778z" p-id="1925" fill="#ffffff"></path><path d="M184.550741 460.344889l-23.210666-38.912L583.000519 156.558222l276.024889 108.544-15.928889 42.552889L587.55163 207.075556 184.550741 460.344889z" p-id="1926" fill="#ffffff"></path></svg>