<svg t="1592204784353" class="icon" viewBox="0 0 1025 1024" version="1.1" xmlns="http://www.w3.org/2000/svg" p-id="2809" width="128" height="128"><path d="M512 0C229.23069 0 0 229.23069 0 512.001738c0 282.76931 229.23069 511.998262 512 511.998262 282.76931 0 512-229.228951 512-511.998262C1024.001738 229.23069 794.76931 0 512 0zM233.801187 306.816141c0-40.261752 32.756679-73.016692 73.016692-73.016692l61.481793 0 0 27.815883-61.481793 0c-24.923031 0-45.200809 20.277779-45.200809 45.200809l0 72.53513-27.815883 0L233.801187 306.816141zM368.299673 790.200551l-61.481793 0c-40.260013 0-73.016692-32.753202-73.016692-73.016692l0-72.53513 27.815883 0 0 72.53513c0 24.926508 20.277779 45.200809 45.200809 45.200809l61.481793 0L368.299673 790.200551zM292.869953 525.907941c-7.682399 0-13.907941-6.227281-13.907941-13.907941s6.225542-13.907941 13.907941-13.907941l438.261833 0c7.680661 0 13.907941 6.227281 13.907941 13.907941s-6.227281 13.907941-13.907941 13.907941L292.869953 525.907941zM790.200551 717.183859c0 40.26349-32.75494 73.016692-73.016692 73.016692l-83.588466 0 0-27.815883 83.588466 0c24.924769 0 45.200809-20.274302 45.200809-45.200809l0-72.53513 27.815883 0L790.200551 717.183859zM790.200551 379.353009l-27.815883 0 0-72.53513c0-24.923031-20.27604-45.200809-45.200809-45.200809l-83.588466 0 0-27.815883 83.588466 0c40.261752 0 73.016692 32.75494 73.016692 73.016692L790.200551 379.353009z" fill="#ffffff" p-id="2810"></path></svg>