<svg t="1594870884664" class="icon" viewBox="0 0 1024 1024" version="1.1" xmlns="http://www.w3.org/2000/svg" p-id="1891" width="48" height="48"><path d="M516.654545 65.163636c-242.036364 0-442.181818 200.145455-442.181818 442.181819s200.145455 442.181818 442.181818 442.181818 442.181818-200.145455 442.181819-442.181818-195.490909-442.181818-442.181819-442.181819z m0 823.854546c-209.454545 0-381.672727-172.218182-381.672727-381.672727s172.218182-381.672727 381.672727-381.672728 381.672727 172.218182 381.672728 381.672728-167.563636 381.672727-381.672728 381.672727z" p-id="1892" fill="#797979"></path><path d="M702.836364 474.763636h-153.6V321.163636c0-18.618182-13.963636-32.581818-27.927273-32.581818s-27.927273 13.963636-27.927273 32.581818v153.6H335.127273c-18.618182 0-27.927273 13.963636-27.927273 32.581819s13.963636 32.581818 27.927273 32.581818h153.6v153.6c0 18.618182 13.963636 32.581818 27.927272 32.581818s27.927273-13.963636 27.927273-32.581818v-153.6H698.181818c18.618182 0 27.927273-13.963636 27.927273-32.581818s-9.309091-32.581818-23.272727-32.581819z" p-id="1893" fill="#797979"></path></svg>