<svg t="1594601575650" class="icon" viewBox="0 0 1024 1024" version="1.1" xmlns="http://www.w3.org/2000/svg" p-id="2182" width="48" height="48"><path d="M160 960a32 32 0 0 1-32-32V96a32 32 0 0 1 32-32h466.744a32 32 0 0 1 22.628 9.372l237.256 237.256A32 32 0 0 1 896 333.256V928a32 32 0 0 1-32 32H160z m672-64V384h-224a32 32 0 0 1-32-32V128H192v768h640z m-26.508-576L640 154.508V320h165.492zM256 768v-64h512v64H256z m0-192v-64h512v64H256z m0-256h192v64H256V320z" fill="#707070" p-id="2183"></path></svg>