<?xml version="1.0" standalone="no"?><!DOCTYPE svg PUBLIC "-//W3C//DTD SVG 1.1//EN" "http://www.w3.org/Graphics/SVG/1.1/DTD/svg11.dtd"><svg xmlns:xlink="http://www.w3.org/1999/xlink" version="1.1" class="highcharts-root" style="font-family:&quot;Lucida Grande&quot;, &quot;Lucida Sans Unicode&quot;, Arial, Helvetica, sans-serif;font-size:12px;" xmlns="http://www.w3.org/2000/svg" width="600" height="1000" viewBox="0 0 600 1000"><desc>Created with Highcharts 6.0.2</desc><defs><clipPath id="highcharts-omsxpyg-147"><rect x="0" y="0" width="475" height="881" fill="none"></rect></clipPath><clipPath id="highcharts-omsxpyg-148"><rect x="16.5" y="56.5" width="25" height="20" fill="none"></rect></clipPath><clipPath id="highcharts-omsxpyg-149"><rect x="16.5" y="100.5" width="25" height="20" fill="none"></rect></clipPath><clipPath id="highcharts-omsxpyg-150"><rect x="41.5" y="144.5" width="25" height="20" fill="none"></rect></clipPath><clipPath id="highcharts-omsxpyg-151"><rect x="41.5" y="188.5" width="49" height="20" fill="none"></rect></clipPath><clipPath id="highcharts-omsxpyg-152"><rect x="65.5" y="232.5" width="25" height="20" fill="none"></rect></clipPath><clipPath id="highcharts-omsxpyg-153"><rect x="65.5" y="276.5" width="25" height="20" fill="none"></rect></clipPath><clipPath id="highcharts-omsxpyg-154"><rect x="65.5" y="320.5" width="49" height="20" fill="none"></rect></clipPath><clipPath id="highcharts-omsxpyg-155"><rect x="65.5" y="364.5" width="49" height="20" fill="none"></rect></clipPath><clipPath id="highcharts-omsxpyg-156"><rect x="65.5" y="408.5" width="25" height="20" fill="none"></rect></clipPath><clipPath id="highcharts-omsxpyg-157"><rect x="65.5" y="452.5" width="49" height="20" fill="none"></rect></clipPath><clipPath id="highcharts-omsxpyg-158"><rect x="90.5" y="496.5" width="25" height="20" fill="none"></rect></clipPath><clipPath id="highcharts-omsxpyg-159"><rect x="90.5" y="540.5" width="49" height="20" fill="none"></rect></clipPath><clipPath id="highcharts-omsxpyg-160"><rect x="90.5" y="584.5" width="49" height="20" fill="none"></rect></clipPath><clipPath id="highcharts-omsxpyg-161"><rect x="114.5" y="628.5" width="25" height="20" fill="none"></rect></clipPath><clipPath id="highcharts-omsxpyg-162"><rect x="114.5" y="672.5" width="25" height="20" fill="none"></rect></clipPath><clipPath id="highcharts-omsxpyg-163"><rect x="139.5" y="716.5" width="25" height="20" fill="none"></rect></clipPath><clipPath id="highcharts-omsxpyg-164"><rect x="139.5" y="760.5" width="25" height="20" fill="none"></rect></clipPath><clipPath id="highcharts-omsxpyg-165"><rect x="139.5" y="804.5" width="25" height="20" fill="none"></rect></clipPath><clipPath id="highcharts-omsxpyg-166"><rect x="139.5" y="848.5" width="25" height="20" fill="none"></rect></clipPath><clipPath id="highcharts-omsxpyg-167"><rect x="16.5" y="12.5" width="442" height="20" fill="none"></rect></clipPath></defs><rect fill="#ffffff" class="highcharts-background" x="0" y="0" width="600" height="1000" rx="0" ry="0"></rect><rect fill="none" class="highcharts-plot-background" x="115" y="53" width="475" height="881"></rect><g class="highcharts-grid highcharts-xaxis-grid "><path fill="none" class="highcharts-grid-line" d="M 155.5 53 L 155.5 934" opacity="1"></path><path fill="none" class="highcharts-grid-line" d="M 204.5 53 L 204.5 934" opacity="1"></path><path fill="none" class="highcharts-grid-line" d="M 253.5 53 L 253.5 934" opacity="1"></path><path fill="none" class="highcharts-grid-line" d="M 302.5 53 L 302.5 934" opacity="1"></path><path fill="none" class="highcharts-grid-line" d="M 352.5 53 L 352.5 934" opacity="1"></path><path fill="none" class="highcharts-grid-line" d="M 401.5 53 L 401.5 934" opacity="1"></path><path fill="none" class="highcharts-grid-line" d="M 450.5 53 L 450.5 934" opacity="1"></path><path fill="none" class="highcharts-grid-line" d="M 499.5 53 L 499.5 934" opacity="1"></path><path fill="none" class="highcharts-grid-line" d="M 548.5 53 L 548.5 934" opacity="1"></path></g><g class="highcharts-grid highcharts-yaxis-grid "><path fill="none" stroke="#e6e6e6" stroke-width="1" class="highcharts-grid-line" d="M 115 97.5 L 590 97.5" opacity="1"></path><path fill="none" stroke="#e6e6e6" stroke-width="1" class="highcharts-grid-line" d="M 115 141.5 L 590 141.5" opacity="1"></path><path fill="none" stroke="#e6e6e6" stroke-width="1" class="highcharts-grid-line" d="M 115 185.5 L 590 185.5" opacity="1"></path><path fill="none" stroke="#e6e6e6" stroke-width="1" class="highcharts-grid-line" d="M 115 229.5 L 590 229.5" opacity="1"></path><path fill="none" stroke="#e6e6e6" stroke-width="1" class="highcharts-grid-line" d="M 115 273.5 L 590 273.5" opacity="1"></path><path fill="none" stroke="#e6e6e6" stroke-width="1" class="highcharts-grid-line" d="M 115 317.5 L 590 317.5" opacity="1"></path><path fill="none" stroke="#e6e6e6" stroke-width="1" class="highcharts-grid-line" d="M 115 361.5 L 590 361.5" opacity="1"></path><path fill="none" stroke="#e6e6e6" stroke-width="1" class="highcharts-grid-line" d="M 115 405.5 L 590 405.5" opacity="1"></path><path fill="none" stroke="#e6e6e6" stroke-width="1" class="highcharts-grid-line" d="M 115 449.5 L 590 449.5" opacity="1"></path><path fill="none" stroke="#e6e6e6" stroke-width="1" class="highcharts-grid-line" d="M 115 494.5 L 590 494.5" opacity="1"></path><path fill="none" stroke="#e6e6e6" stroke-width="1" class="highcharts-grid-line" d="M 115 538.5 L 590 538.5" opacity="1"></path><path fill="none" stroke="#e6e6e6" stroke-width="1" class="highcharts-grid-line" d="M 115 582.5 L 590 582.5" opacity="1"></path><path fill="none" stroke="#e6e6e6" stroke-width="1" class="highcharts-grid-line" d="M 115 626.5 L 590 626.5" opacity="1"></path><path fill="none" stroke="#e6e6e6" stroke-width="1" class="highcharts-grid-line" d="M 115 670.5 L 590 670.5" opacity="1"></path><path fill="none" stroke="#e6e6e6" stroke-width="1" class="highcharts-grid-line" d="M 115 714.5 L 590 714.5" opacity="1"></path><path fill="none" stroke="#e6e6e6" stroke-width="1" class="highcharts-grid-line" d="M 115 758.5 L 590 758.5" opacity="1"></path><path fill="none" stroke="#e6e6e6" stroke-width="1" class="highcharts-grid-line" d="M 115 802.5 L 590 802.5" opacity="1"></path><path fill="none" stroke="#e6e6e6" stroke-width="1" class="highcharts-grid-line" d="M 115 846.5 L 590 846.5" opacity="1"></path><path fill="none" stroke="#e6e6e6" stroke-width="1" class="highcharts-grid-line" d="M 115 890.5 L 590 890.5" opacity="1"></path><path fill="none" stroke="#e6e6e6" stroke-width="1" class="highcharts-grid-line" d="M 115 934.5 L 590 934.5" opacity="1"></path><path fill="none" stroke="#e6e6e6" stroke-width="1" class="highcharts-grid-line" d="M 115 52.5 L 590 52.5" opacity="1"></path></g><rect fill="none" class="highcharts-plot-border" x="115" y="53" width="475" height="881"></rect><g class="highcharts-axis highcharts-xaxis "><path fill="none" class="highcharts-tick" stroke="#ccd6eb" stroke-width="1" d="M 155.5 934 L 155.5 944" opacity="1"></path><path fill="none" class="highcharts-tick" stroke="#ccd6eb" stroke-width="1" d="M 204.5 934 L 204.5 944" opacity="1"></path><path fill="none" class="highcharts-tick" stroke="#ccd6eb" stroke-width="1" d="M 253.5 934 L 253.5 944" opacity="1"></path><path fill="none" class="highcharts-tick" stroke="#ccd6eb" stroke-width="1" d="M 302.5 934 L 302.5 944" opacity="1"></path><path fill="none" class="highcharts-tick" stroke="#ccd6eb" stroke-width="1" d="M 352.5 934 L 352.5 944" opacity="1"></path><path fill="none" class="highcharts-tick" stroke="#ccd6eb" stroke-width="1" d="M 401.5 934 L 401.5 944" opacity="1"></path><path fill="none" class="highcharts-tick" stroke="#ccd6eb" stroke-width="1" d="M 450.5 934 L 450.5 944" opacity="1"></path><path fill="none" class="highcharts-tick" stroke="#ccd6eb" stroke-width="1" d="M 499.5 934 L 499.5 944" opacity="1"></path><path fill="none" class="highcharts-tick" stroke="#ccd6eb" stroke-width="1" d="M 548.5 934 L 548.5 944" opacity="1"></path><path fill="none" class="highcharts-axis-line" stroke="#ccd6eb" stroke-width="1" d="M 115 934.5 L 590 934.5"></path></g><g class="highcharts-axis highcharts-yaxis "><path fill="none" class="highcharts-axis-line" d="M 115 53 L 115 934"></path></g><g class="highcharts-series-group"><g class="highcharts-series highcharts-series-0 highcharts-xrange-series " transform="translate(115,53) scale(1 1)" clip-path="url(#highcharts-omsxpyg-147)"><g class="highcharts-point highcharts-point highcharts-color-1"><rect x="16.5" y="56.5" width="25" height="20" rx="3" ry="3" fill="#ccffcc" class="highcharts-point highcharts-color-1 highcharts-partfill-original" stroke="black" stroke-width="1"></rect><rect x="16.5" y="56.5" width="25" height="20" rx="3" ry="3" fill="rgb(128,179,128)" class="highcharts-partfill-overlay" clip-path="url(#highcharts-omsxpyg-148)" stroke="black" stroke-width="1"></rect></g><g class="highcharts-point highcharts-point highcharts-color-2"><rect x="16.5" y="100.5" width="25" height="20" rx="3" ry="3" fill="#ccffcc" class="highcharts-point highcharts-color-2 highcharts-partfill-original" stroke="black" stroke-width="1"></rect><rect x="16.5" y="100.5" width="25" height="20" rx="3" ry="3" fill="rgb(128,179,128)" class="highcharts-partfill-overlay" clip-path="url(#highcharts-omsxpyg-149)" stroke="black" stroke-width="1"></rect></g><g class="highcharts-point highcharts-point highcharts-color-3"><rect x="41.5" y="144.5" width="25" height="20" rx="3" ry="3" fill="#ccffcc" class="highcharts-point highcharts-color-3 highcharts-partfill-original" stroke="black" stroke-width="1"></rect><rect x="41.5" y="144.5" width="25" height="20" rx="3" ry="3" fill="rgb(128,179,128)" class="highcharts-partfill-overlay" clip-path="url(#highcharts-omsxpyg-150)" stroke="black" stroke-width="1"></rect></g><g class="highcharts-point highcharts-point highcharts-color-4"><rect x="41.5" y="188.5" width="49" height="20" rx="3" ry="3" fill="#ccffcc" class="highcharts-point highcharts-color-4 highcharts-partfill-original" stroke="black" stroke-width="1"></rect><rect x="41.5" y="188.5" width="49" height="20" rx="3" ry="3" fill="rgb(128,179,128)" class="highcharts-partfill-overlay" clip-path="url(#highcharts-omsxpyg-151)" stroke="black" stroke-width="1"></rect></g><g class="highcharts-point highcharts-point highcharts-color-5"><rect x="65.5" y="232.5" width="25" height="20" rx="3" ry="3" fill="#ccffcc" class="highcharts-point highcharts-color-5 highcharts-partfill-original" stroke="black" stroke-width="1"></rect><rect x="65.5" y="232.5" width="25" height="20" rx="3" ry="3" fill="rgb(128,179,128)" class="highcharts-partfill-overlay" clip-path="url(#highcharts-omsxpyg-152)" stroke="black" stroke-width="1"></rect></g><g class="highcharts-point highcharts-point highcharts-color-6"><rect x="65.5" y="276.5" width="25" height="20" rx="3" ry="3" fill="#ccffcc" class="highcharts-point highcharts-color-6 highcharts-partfill-original" stroke="black" stroke-width="1"></rect><rect x="65.5" y="276.5" width="25" height="20" rx="3" ry="3" fill="rgb(128,179,128)" class="highcharts-partfill-overlay" clip-path="url(#highcharts-omsxpyg-153)" stroke="black" stroke-width="1"></rect></g><g class="highcharts-point highcharts-point highcharts-color-7"><rect x="65.5" y="320.5" width="49" height="20" rx="3" ry="3" fill="#ccffcc" class="highcharts-point highcharts-color-7 highcharts-partfill-original" stroke="black" stroke-width="1"></rect><rect x="65.5" y="320.5" width="49" height="20" rx="3" ry="3" fill="rgb(128,179,128)" class="highcharts-partfill-overlay" clip-path="url(#highcharts-omsxpyg-154)" stroke="black" stroke-width="1"></rect></g><g class="highcharts-point highcharts-point highcharts-color-8"><rect x="65.5" y="364.5" width="49" height="20" rx="3" ry="3" fill="#ccffcc" class="highcharts-point highcharts-color-8 highcharts-partfill-original" stroke="black" stroke-width="1"></rect><rect x="65.5" y="364.5" width="49" height="20" rx="3" ry="3" fill="rgb(128,179,128)" class="highcharts-partfill-overlay" clip-path="url(#highcharts-omsxpyg-155)" stroke="black" stroke-width="1"></rect></g><g class="highcharts-point highcharts-point highcharts-color-9"><rect x="65.5" y="408.5" width="25" height="20" rx="3" ry="3" fill="#ccffcc" class="highcharts-point highcharts-color-9 highcharts-partfill-original" stroke="black" stroke-width="1"></rect><rect x="65.5" y="408.5" width="25" height="20" rx="3" ry="3" fill="rgb(128,179,128)" class="highcharts-partfill-overlay" clip-path="url(#highcharts-omsxpyg-156)" stroke="black" stroke-width="1"></rect></g><g class="highcharts-point highcharts-point highcharts-color-0"><rect x="65.5" y="452.5" width="49" height="20" rx="3" ry="3" fill="#ccffcc" class="highcharts-point highcharts-color-0 highcharts-partfill-original" stroke="black" stroke-width="1"></rect><rect x="65.5" y="452.5" width="49" height="20" rx="3" ry="3" fill="rgb(128,179,128)" class="highcharts-partfill-overlay" clip-path="url(#highcharts-omsxpyg-157)" stroke="black" stroke-width="1"></rect></g><g class="highcharts-point highcharts-point highcharts-color-1"><rect x="90.5" y="496.5" width="25" height="20" rx="3" ry="3" fill="#ccffcc" class="highcharts-point highcharts-color-1 highcharts-partfill-original" stroke="black" stroke-width="1"></rect><rect x="90.5" y="496.5" width="25" height="20" rx="3" ry="3" fill="rgb(128,179,128)" class="highcharts-partfill-overlay" clip-path="url(#highcharts-omsxpyg-158)" stroke="black" stroke-width="1"></rect></g><g class="highcharts-point highcharts-point highcharts-color-2"><rect x="90.5" y="540.5" width="49" height="20" rx="3" ry="3" fill="#ccffcc" class="highcharts-point highcharts-color-2 highcharts-partfill-original" stroke="black" stroke-width="1"></rect><rect x="90.5" y="540.5" width="49" height="20" rx="3" ry="3" fill="rgb(128,179,128)" class="highcharts-partfill-overlay" clip-path="url(#highcharts-omsxpyg-159)" stroke="black" stroke-width="1"></rect></g><g class="highcharts-point highcharts-point highcharts-color-3"><rect x="90.5" y="584.5" width="49" height="20" rx="3" ry="3" fill="#ccffcc" class="highcharts-point highcharts-color-3 highcharts-partfill-original" stroke="black" stroke-width="1"></rect><rect x="90.5" y="584.5" width="49" height="20" rx="3" ry="3" fill="rgb(128,179,128)" class="highcharts-partfill-overlay" clip-path="url(#highcharts-omsxpyg-160)" stroke="black" stroke-width="1"></rect></g><g class="highcharts-point highcharts-point highcharts-color-4"><rect x="114.5" y="628.5" width="25" height="20" rx="3" ry="3" fill="#ccffcc" class="highcharts-point highcharts-color-4 highcharts-partfill-original" stroke="black" stroke-width="1"></rect><rect x="114.5" y="628.5" width="25" height="20" rx="3" ry="3" fill="rgb(128,179,128)" class="highcharts-partfill-overlay" clip-path="url(#highcharts-omsxpyg-161)" stroke="black" stroke-width="1"></rect></g><g class="highcharts-point highcharts-point highcharts-color-5"><rect x="114.5" y="672.5" width="25" height="20" rx="3" ry="3" fill="#ccffcc" class="highcharts-point highcharts-color-5 highcharts-partfill-original" stroke="black" stroke-width="1"></rect><rect x="114.5" y="672.5" width="25" height="20" rx="3" ry="3" fill="rgb(128,179,128)" class="highcharts-partfill-overlay" clip-path="url(#highcharts-omsxpyg-162)" stroke="black" stroke-width="1"></rect></g><g class="highcharts-point highcharts-point highcharts-color-6"><rect x="139.5" y="716.5" width="25" height="20" rx="3" ry="3" fill="#ccffcc" class="highcharts-point highcharts-color-6 highcharts-partfill-original" stroke="black" stroke-width="1"></rect><rect x="139.5" y="716.5" width="25" height="20" rx="3" ry="3" fill="rgb(128,179,128)" class="highcharts-partfill-overlay" clip-path="url(#highcharts-omsxpyg-163)" stroke="black" stroke-width="1"></rect></g><g class="highcharts-point highcharts-point highcharts-color-7"><rect x="139.5" y="760.5" width="25" height="20" rx="3" ry="3" fill="#ccffcc" class="highcharts-point highcharts-color-7 highcharts-partfill-original" stroke="black" stroke-width="1"></rect><rect x="139.5" y="760.5" width="25" height="20" rx="3" ry="3" fill="rgb(128,179,128)" class="highcharts-partfill-overlay" clip-path="url(#highcharts-omsxpyg-164)" stroke="black" stroke-width="1"></rect></g><g class="highcharts-point highcharts-point highcharts-color-8"><rect x="139.5" y="804.5" width="25" height="20" rx="3" ry="3" fill="#ccffcc" class="highcharts-point highcharts-color-8 highcharts-partfill-original" stroke="black" stroke-width="1"></rect><rect x="139.5" y="804.5" width="25" height="20" rx="3" ry="3" fill="rgb(128,179,128)" class="highcharts-partfill-overlay" clip-path="url(#highcharts-omsxpyg-165)" stroke="black" stroke-width="1"></rect></g><g class="highcharts-point highcharts-point highcharts-color-9"><rect x="139.5" y="848.5" width="25" height="20" rx="3" ry="3" fill="#ccffcc" class="highcharts-point highcharts-color-9 highcharts-partfill-original" stroke="black" stroke-width="1"></rect><rect x="139.5" y="848.5" width="25" height="20" rx="3" ry="3" fill="rgb(128,179,128)" class="highcharts-partfill-overlay" clip-path="url(#highcharts-omsxpyg-166)" stroke="black" stroke-width="1"></rect></g><g class="highcharts-point highcharts-point highcharts-color-0"><rect x="16.5" y="12.5" width="442" height="20" rx="3" ry="3" fill="#33ccff" class="highcharts-point highcharts-color-0 highcharts-partfill-original" stroke="black" stroke-width="1"></rect><rect x="16.5" y="12.5" width="442" height="20" rx="3" ry="3" fill="rgb(0,128,179)" class="highcharts-partfill-overlay" clip-path="url(#highcharts-omsxpyg-167)" stroke="black" stroke-width="1"></rect></g></g><g class="highcharts-markers highcharts-series-0 highcharts-xrange-series " transform="translate(115,53) scale(1 1)" clip-path="none"></g></g><text x="300" text-anchor="middle" class="highcharts-title" style="color:#333333;font-size:18px;fill:#333333;" y="24"><tspan>设计</tspan></text><text x="300" text-anchor="middle" class="highcharts-subtitle" style="color:#666666;fill:#666666;" y="52"></text><g class="highcharts-data-labels highcharts-series-0 highcharts-xrange-series " visibility="visible" transform="translate(115,53) scale(1 1)"><g class="highcharts-label highcharts-data-label highcharts-data-label-color-1 " transform="translate(9,55)"><text x="5" style="font-size:11px;font-weight:bold;color:#000000;fill:#000000;" y="16"><tspan x="5" y="16" class="highcharts-text-outline" fill="#FFFFFF" stroke="#FFFFFF" stroke-width="2px" stroke-linejoin="round" style="">100%</tspan><tspan x="5" y="16">100%</tspan></text></g><g class="highcharts-label highcharts-data-label highcharts-data-label-color-2 " transform="translate(9,99)"><text x="5" style="font-size:11px;font-weight:bold;color:#000000;fill:#000000;" y="16"><tspan x="5" y="16" class="highcharts-text-outline" fill="#FFFFFF" stroke="#FFFFFF" stroke-width="2px" stroke-linejoin="round">100%</tspan><tspan x="5" y="16">100%</tspan></text></g><g class="highcharts-label highcharts-data-label highcharts-data-label-color-3 " transform="translate(34,143)"><text x="5" style="font-size:11px;font-weight:bold;color:#000000;fill:#000000;" y="16"><tspan x="5" y="16" class="highcharts-text-outline" fill="#FFFFFF" stroke="#FFFFFF" stroke-width="2px" stroke-linejoin="round">100%</tspan><tspan x="5" y="16">100%</tspan></text></g><g class="highcharts-label highcharts-data-label highcharts-data-label-color-4 " transform="translate(46,187)"><text x="5" style="font-size:11px;font-weight:bold;color:#000000;fill:#000000;" y="16"><tspan x="5" y="16" class="highcharts-text-outline" fill="#FFFFFF" stroke="#FFFFFF" stroke-width="2px" stroke-linejoin="round">100%</tspan><tspan x="5" y="16">100%</tspan></text></g><g class="highcharts-label highcharts-data-label highcharts-data-label-color-5 " transform="translate(58,231)"><text x="5" style="font-size:11px;font-weight:bold;color:#000000;fill:#000000;" y="16"><tspan x="5" y="16" class="highcharts-text-outline" fill="#FFFFFF" stroke="#FFFFFF" stroke-width="2px" stroke-linejoin="round">100%</tspan><tspan x="5" y="16">100%</tspan></text></g><g class="highcharts-label highcharts-data-label highcharts-data-label-color-6 " transform="translate(58,275)"><text x="5" style="font-size:11px;font-weight:bold;color:#000000;fill:#000000;" y="16"><tspan x="5" y="16" class="highcharts-text-outline" fill="#FFFFFF" stroke="#FFFFFF" stroke-width="2px" stroke-linejoin="round">100%</tspan><tspan x="5" y="16">100%</tspan></text></g><g class="highcharts-label highcharts-data-label highcharts-data-label-color-7 " transform="translate(70,319)"><text x="5" style="font-size:11px;font-weight:bold;color:#000000;fill:#000000;" y="16"><tspan x="5" y="16" class="highcharts-text-outline" fill="#FFFFFF" stroke="#FFFFFF" stroke-width="2px" stroke-linejoin="round">100%</tspan><tspan x="5" y="16">100%</tspan></text></g><g class="highcharts-label highcharts-data-label highcharts-data-label-color-8 " transform="translate(70,363)"><text x="5" style="font-size:11px;font-weight:bold;color:#000000;fill:#000000;" y="16"><tspan x="5" y="16" class="highcharts-text-outline" fill="#FFFFFF" stroke="#FFFFFF" stroke-width="2px" stroke-linejoin="round">100%</tspan><tspan x="5" y="16">100%</tspan></text></g><g class="highcharts-label highcharts-data-label highcharts-data-label-color-9 " transform="translate(58,407)"><text x="5" style="font-size:11px;font-weight:bold;color:#000000;fill:#000000;" y="16"><tspan x="5" y="16" class="highcharts-text-outline" fill="#FFFFFF" stroke="#FFFFFF" stroke-width="2px" stroke-linejoin="round">100%</tspan><tspan x="5" y="16">100%</tspan></text></g><g class="highcharts-label highcharts-data-label highcharts-data-label-color-0 " transform="translate(70,451)"><text x="5" style="font-size:11px;font-weight:bold;color:#000000;fill:#000000;" y="16"><tspan x="5" y="16" class="highcharts-text-outline" fill="#FFFFFF" stroke="#FFFFFF" stroke-width="2px" stroke-linejoin="round">100%</tspan><tspan x="5" y="16">100%</tspan></text></g><g class="highcharts-label highcharts-data-label highcharts-data-label-color-1 " transform="translate(83,495)"><text x="5" style="font-size:11px;font-weight:bold;color:#000000;fill:#000000;" y="16"><tspan x="5" y="16" class="highcharts-text-outline" fill="#FFFFFF" stroke="#FFFFFF" stroke-width="2px" stroke-linejoin="round">100%</tspan><tspan x="5" y="16">100%</tspan></text></g><g class="highcharts-label highcharts-data-label highcharts-data-label-color-2 " transform="translate(95,539)"><text x="5" style="font-size:11px;font-weight:bold;color:#000000;fill:#000000;" y="16"><tspan x="5" y="16" class="highcharts-text-outline" fill="#FFFFFF" stroke="#FFFFFF" stroke-width="2px" stroke-linejoin="round">100%</tspan><tspan x="5" y="16">100%</tspan></text></g><g class="highcharts-label highcharts-data-label highcharts-data-label-color-3 " transform="translate(95,583)"><text x="5" style="font-size:11px;font-weight:bold;color:#000000;fill:#000000;" y="16"><tspan x="5" y="16" class="highcharts-text-outline" fill="#FFFFFF" stroke="#FFFFFF" stroke-width="2px" stroke-linejoin="round">100%</tspan><tspan x="5" y="16">100%</tspan></text></g><g class="highcharts-label highcharts-data-label highcharts-data-label-color-4 " transform="translate(107,627)"><text x="5" style="font-size:11px;font-weight:bold;color:#000000;fill:#000000;" y="16"><tspan x="5" y="16" class="highcharts-text-outline" fill="#FFFFFF" stroke="#FFFFFF" stroke-width="2px" stroke-linejoin="round">100%</tspan><tspan x="5" y="16">100%</tspan></text></g><g class="highcharts-label highcharts-data-label highcharts-data-label-color-5 " transform="translate(107,671)"><text x="5" style="font-size:11px;font-weight:bold;color:#000000;fill:#000000;" y="16"><tspan x="5" y="16" class="highcharts-text-outline" fill="#FFFFFF" stroke="#FFFFFF" stroke-width="2px" stroke-linejoin="round">100%</tspan><tspan x="5" y="16">100%</tspan></text></g><g class="highcharts-label highcharts-data-label highcharts-data-label-color-6 " transform="translate(132,715)"><text x="5" style="font-size:11px;font-weight:bold;color:#000000;fill:#000000;" y="16"><tspan x="5" y="16" class="highcharts-text-outline" fill="#FFFFFF" stroke="#FFFFFF" stroke-width="2px" stroke-linejoin="round">100%</tspan><tspan x="5" y="16">100%</tspan></text></g><g class="highcharts-label highcharts-data-label highcharts-data-label-color-7 " transform="translate(132,759)"><text x="5" style="font-size:11px;font-weight:bold;color:#000000;fill:#000000;" y="16"><tspan x="5" y="16" class="highcharts-text-outline" fill="#FFFFFF" stroke="#FFFFFF" stroke-width="2px" stroke-linejoin="round">100%</tspan><tspan x="5" y="16">100%</tspan></text></g><g class="highcharts-label highcharts-data-label highcharts-data-label-color-8 " transform="translate(132,803)"><text x="5" style="font-size:11px;font-weight:bold;color:#000000;fill:#000000;" y="16"><tspan x="5" y="16" class="highcharts-text-outline" fill="#FFFFFF" stroke="#FFFFFF" stroke-width="2px" stroke-linejoin="round">100%</tspan><tspan x="5" y="16">100%</tspan></text></g><g class="highcharts-label highcharts-data-label highcharts-data-label-color-9 " transform="translate(132,847)"><text x="5" style="font-size:11px;font-weight:bold;color:#000000;fill:#000000;" y="16"><tspan x="5" y="16" class="highcharts-text-outline" fill="#FFFFFF" stroke="#FFFFFF" stroke-width="2px" stroke-linejoin="round">100%</tspan><tspan x="5" y="16">100%</tspan></text></g><g class="highcharts-label highcharts-data-label highcharts-data-label-color-0 " transform="translate(217,11)"><text x="5" style="font-size:11px;font-weight:bold;color:#FFFFFF;fill:#FFFFFF;" y="16"><tspan x="5" y="16" class="highcharts-text-outline" fill="#000000" stroke="#000000" stroke-width="2px" stroke-linejoin="round">100%</tspan><tspan x="5" y="16">100%</tspan></text></g></g><g class="highcharts-legend" transform="translate(237,956)"><rect fill="none" class="highcharts-legend-box" rx="0" ry="0" x="0" y="0" width="125" height="29" visibility="visible"></rect><g><g><g class="highcharts-legend-item highcharts-xrange-series highcharts-color-undefined highcharts-series-0" transform="translate(8,3)"><text x="21" style="color:#333333;font-size:12px;font-weight:bold;cursor:pointer;fill:#333333;" text-anchor="start" y="15"><tspan>长沙建发美的3#</tspan></text><rect x="2" y="4" width="12" height="12" fill="#cccccc" rx="6" ry="6" class="highcharts-point"></rect></g></g></g></g><g class="highcharts-axis-labels highcharts-xaxis-labels "></g><g class="highcharts-axis-labels highcharts-yaxis-labels "><text x="100" style="color:#666666;cursor:default;font-size:11px;fill:#666666;" text-anchor="end" transform="translate(0,0)" y="79" opacity="1"><tspan>总进度</tspan></text><text x="100" style="color:#666666;cursor:default;font-size:11px;fill:#666666;" text-anchor="end" transform="translate(0,0)" y="108" opacity="1"><tspan>底图签收</tspan><tspan x="100" dy="14">(吴君)</tspan><tspan style="fill: #80b380;" x="100" dy="14">计划内完成任务</tspan></text><text x="100" style="color:#666666;cursor:default;font-size:11px;fill:#666666;" text-anchor="end" transform="translate(0,0)" y="152" opacity="1"><tspan>底图三维模型检查</tspan><tspan x="100" dy="14">(吴君)</tspan><tspan style="fill: #80b380;" x="100" dy="14">计划内完成任务</tspan></text><text x="100" style="color:#666666;cursor:default;font-size:11px;fill:#666666;" text-anchor="end" transform="translate(0,0)" y="196" opacity="1"><tspan>墙</tspan><tspan x="100" dy="14">(李宗运)</tspan><tspan style="fill: #80b380;" x="100" dy="14">计划内完成任务</tspan></text><text x="100" style="color:#666666;cursor:default;font-size:11px;fill:#666666;" text-anchor="end" transform="translate(0,0)" y="240" opacity="1"><tspan>梁</tspan><tspan x="100" dy="14">(吴臣)</tspan><tspan style="fill: #80b380;" x="100" dy="14">计划内完成任务</tspan></text><text x="100" style="color:#666666;cursor:default;font-size:11px;fill:#666666;" text-anchor="end" transform="translate(0,0)" y="284" opacity="1"><tspan>楼板</tspan><tspan x="100" dy="14">(李龙超)</tspan><tspan style="fill: #80b380;" x="100" dy="14">计划内完成任务</tspan></text><text x="100" style="color:#666666;cursor:default;font-size:11px;fill:#666666;" text-anchor="end" transform="translate(0,0)" y="328" opacity="1"><tspan>楼梯</tspan><tspan x="100" dy="14">(黎子豪)</tspan><tspan style="fill: #80b380;" x="100" dy="14">计划内完成任务</tspan></text><text x="100" style="color:#666666;cursor:default;font-size:11px;fill:#666666;" text-anchor="end" transform="translate(0,0)" y="372" opacity="1"><tspan>背楞</tspan><tspan x="100" dy="14">(姚水彬)</tspan><tspan style="fill: #80b380;" x="100" dy="14">计划内完成任务</tspan></text><text x="100" style="color:#666666;cursor:default;font-size:11px;fill:#666666;" text-anchor="end" transform="translate(0,0)" y="416" opacity="1"><tspan>吊模</tspan><tspan x="100" dy="14">(胡浩常)</tspan><tspan style="fill: #80b380;" x="100" dy="14">计划内完成任务</tspan></text><text x="100" style="color:#666666;cursor:default;font-size:11px;fill:#666666;" text-anchor="end" transform="translate(0,0)" y="460" opacity="1"><tspan>节点</tspan><tspan x="100" dy="14">(李宗运)</tspan><tspan style="fill: #80b380;" x="100" dy="14">计划内完成任务</tspan></text><text x="100" style="color:#666666;cursor:default;font-size:11px;fill:#666666;" text-anchor="end" transform="translate(0,0)" y="504" opacity="1"><tspan>墙施工编号</tspan><tspan x="100" dy="14">(李宗运)</tspan><tspan style="fill: #80b380;" x="100" dy="14">计划内完成任务</tspan></text><text x="100" style="color:#666666;cursor:default;font-size:11px;fill:#666666;" text-anchor="end" transform="translate(0,0)" y="548" opacity="1"><tspan>梁施工编号</tspan><tspan x="100" dy="14">(吴臣)</tspan><tspan style="fill: #80b380;" x="100" dy="14">计划内完成任务</tspan></text><text x="100" style="color:#666666;cursor:default;font-size:11px;fill:#666666;" text-anchor="end" transform="translate(0,0)" y="592" opacity="1"><tspan>楼板施工编号</tspan><tspan x="100" dy="14">(李龙超)</tspan><tspan style="fill: #80b380;" x="100" dy="14">计划内完成任务</tspan></text><text x="100" style="color:#666666;cursor:default;font-size:11px;fill:#666666;" text-anchor="end" transform="translate(0,0)" y="636" opacity="1"><tspan>楼梯施工编号</tspan><tspan x="100" dy="14">(黎子豪)</tspan><tspan style="fill: #80b380;" x="100" dy="14">计划内完成任务</tspan></text><text x="100" style="color:#666666;cursor:default;font-size:11px;fill:#666666;" text-anchor="end" transform="translate(0,0)" y="680" opacity="1"><tspan>背楞施工编号</tspan><tspan x="100" dy="14">(姚水彬)</tspan><tspan style="fill: #80b380;" x="100" dy="14">计划内完成任务</tspan></text><text x="100" style="color:#666666;cursor:default;font-size:11px;fill:#666666;" text-anchor="end" transform="translate(0,0)" y="724" opacity="1"><tspan>吊模施工编号</tspan><tspan x="100" dy="14">(胡浩常)</tspan><tspan style="fill: #80b380;" x="100" dy="14">计划内完成任务</tspan></text><text x="100" style="color:#666666;cursor:default;font-size:11px;fill:#666666;" text-anchor="end" transform="translate(0,0)" y="768" opacity="1"><tspan>变化层</tspan><tspan x="100" dy="14">(冯永健)</tspan><tspan style="fill: #80b380;" x="100" dy="14">计划内完成任务</tspan></text><text x="100" style="color:#666666;cursor:default;font-size:11px;fill:#666666;" text-anchor="end" transform="translate(0,0)" y="812" opacity="1"><tspan>铁配件</tspan><tspan x="100" dy="14">(姚水彬)</tspan><tspan style="fill: #80b380;" x="100" dy="14">计划内完成任务</tspan></text><text x="100" style="color:#666666;cursor:default;font-size:11px;fill:#666666;" text-anchor="end" transform="translate(0,0)" y="856" opacity="1"><tspan>压槽滴水</tspan><tspan x="100" dy="14">(潘国智)</tspan><tspan style="fill: #80b380;" x="100" dy="14">计划内完成任务</tspan></text><text x="100" style="color:#666666;cursor:default;font-size:11px;fill:#666666;" text-anchor="end" transform="translate(0,0)" y="900" opacity="1"><tspan>其他</tspan><tspan x="100" dy="14">(冯永健)</tspan><tspan style="fill: #80b380;" x="100" dy="14">计划内完成任务</tspan></text></g><text x="590" class="highcharts-credits" text-anchor="end" style="cursor:pointer;color:#999999;font-size:9px;fill:#999999;" y="995">rili-tech</text></svg>