<svg t="1593509167284" class="icon" viewBox="0 0 1024 1024" version="1.1" xmlns="http://www.w3.org/2000/svg" p-id="2378" width="128" height="128"><path d="M 512 256 c 70.6 0 128 71.7 128 159.8 c 0 17.7 14.3 32 32 32 s 32 -14.3 32 -32 c 0 -58.7 -19.3 -114.2 -54.3 -156.1 c -14 -16.8 -29.9 -30.7 -47.1 -41.4 c 23.1 -23.2 37.3 -55.1 37.3 -90.3 C 640 57.4 582.6 0 512 0 c -70.6 0 -128 57.4 -128 128 c 0 35.2 14.3 67.1 37.3 90.3 c -17.2 10.7 -33.1 24.6 -47.1 41.4 c -35 42 -54.3 97.4 -54.3 156.1 c 0 17.7 14.3 32 32 32 s 32 -14.3 32 -32 C 384 327.7 441.4 256 512 256 Z m -64 -128 c 0 -35.3 28.7 -64 64 -64 s 64 28.7 64 64 s -28.7 64 -64 64 s -64 -28.7 -64 -64 Z M 282.7 794.5 c 23.1 -23.2 37.3 -55.1 37.3 -90.3 c 0 -70.6 -57.4 -128 -128 -128 s -128 57.4 -128 128 c 0 35.2 14.3 67.1 37.3 90.3 c -17.2 10.7 -33.1 24.6 -47.1 41.4 C 19.3 877.8 0 933.3 0 992 c 0 17.7 14.3 32 32 32 s 32 -14.3 32 -32 c 0 -88.1 57.4 -159.8 128 -159.8 S 320 903.9 320 992 c 0 17.7 14.3 32 32 32 s 32 -14.3 32 -32 c 0 -58.7 -19.3 -114.2 -54.3 -156.1 c -14 -16.8 -29.8 -30.7 -47 -41.4 Z M 128 704.2 c 0 -35.3 28.7 -64 64 -64 s 64 28.7 64 64 s -28.7 64 -64 64 s -64 -28.7 -64 -64 Z M 969.7 835.9 c -14 -16.8 -29.9 -30.7 -47.1 -41.4 c 23.1 -23.2 37.3 -55.1 37.3 -90.3 c 0 -70.6 -57.4 -128 -128 -128 s -128 57.4 -128 128 c 0 35.2 14.3 67.1 37.3 90.3 c -17.2 10.7 -33.1 24.6 -47.1 41.4 c -35 42 -54.3 97.4 -54.3 156.1 c 0 17.7 14.3 32 32 32 s 32 -14.3 32 -32 c 0 -88.1 57.4 -159.8 128 -159.8 S 960 903.9 960 992 c 0 17.7 14.3 32 32 32 s 32 -14.3 32 -32 c 0 -58.7 -19.3 -114.2 -54.3 -156.1 Z M 768 704.2 c 0 -35.3 28.7 -64 64 -64 s 64 28.7 64 64 s -28.7 64 -64 64 s -64 -28.7 -64 -64 Z M 544 563.5 v -82.8 c 0 -17.7 -14.3 -32 -32 -32 s -32 14.3 -32 32 v 82.8 l -86.1 85.2 c -12.6 12.4 -12.7 32.7 -0.2 45.3 c 6.3 6.3 14.5 9.5 22.7 9.5 c 8.1 0 16.3 -3.1 22.5 -9.3 l 73.1 -72.3 l 73.1 72.3 c 6.2 6.2 14.4 9.3 22.5 9.3 c 8.2 0 16.5 -3.2 22.7 -9.5 c 12.4 -12.6 12.3 -32.8 -0.2 -45.3 L 544 563.5 Z" fill="#56A5FD" p-id="2379"></path></svg>