<svg t="1585037133156" class="icon" viewBox="0 0 1024 1024" version="1.1" xmlns="http://www.w3.org/2000/svg" p-id="3144" width="128" height="128"><path d="M790.335 184.364H605.61c0-51.705-41.915-93.61-93.61-93.61-51.705 0-93.61 41.905-93.61 93.61H233.665c-53.076 0-96.106 43.029-96.106 96.106v18.722c0 19.298 15.651 34.948 34.949 34.948h58.661v505.496c0 51.703 41.915 93.609 93.61 93.609H699.22c51.696 0 93.61-41.906 93.61-93.609V334.141h58.661c19.299 0 34.949-15.65 34.949-34.948V280.47c0.001-53.076-43.028-96.106-96.105-96.106zM455.834 783.469c0 31.01-25.149 56.168-56.167 56.168-31.017 0-56.166-25.158-56.166-56.168V446.473c0-31.018 25.149-56.167 56.166-56.167 11.618 0 22.413 3.529 31.371 9.573a94.032 94.032 0 0 0 20.099 24.107 55.944 55.944 0 0 1 4.697 22.487v336.996z m224.665 0c0 31.01-25.148 56.168-56.167 56.168-31.018 0-56.166-25.158-56.166-56.168V446.473c0-8 1.684-15.604 4.699-22.492a94.051 94.051 0 0 0 20.093-24.1c8.959-6.045 19.755-9.575 31.374-9.575 31.019 0 56.167 25.149 56.167 56.167v336.996z" p-id="3145" fill="#BFBFBF"></path></svg>