<svg t="1585107914276" class="icon" viewBox="0 0 1024 1024" version="1.1" xmlns="http://www.w3.org/2000/svg" p-id="8457" width="16" height="16"><path d="M366.537697 293.96299 382.021818 281.411232 402.307879 282.91103 394.546424 265.027232 402.307879 247.135677 382.021818 248.636768 366.537697 236.078545 361.764202 254.890667 344.422141 265.019475 361.764202 275.148283 366.537697 293.96299Z" p-id="8458" fill="#1296db"></path><path d="M648.635475 272.624485 662.981818 287.045818 668.83103 268.448323 686.418747 260.018424 670.109737 247.858424 666.629172 228.226586 650.706747 239.319919 630.970182 235.609212 637.430949 254.621737 628.712727 271.963798 648.635475 272.624485Z" p-id="8459" fill="#1296db"></path><path d="M490.532202 249.984 509.715394 244.55499 527.76598 253.935192 527.684525 234.432646 541.879596 221.056 522.64598 214.429737 513.36404 196.785131 501.563475 212.191677 481.634263 214.665051 493.571879 230.807273 490.532202 249.984Z" p-id="8460" fill="#1296db"></path><path d="M281.678869 366.462707 295.332202 380.254384 302.316606 361.584485 320.559838 352.585697 304.801616 341.112242 302.413576 321.749333 285.693414 333.331394 265.984 330.364121 271.400081 348.997818 261.60097 366.526061 281.678869 366.462707Z" p-id="8461" fill="#1296db"></path><path d="M661.558303 746.885172 646.198303 759.407192 626.077737 757.913859 633.778424 775.757576 626.077737 793.607758 646.198303 792.114424 661.558303 804.63903 666.291717 785.865697 683.487677 775.757576 666.291717 765.657212 661.558303 746.885172Z" p-id="8462" fill="#1296db"></path><path d="M538.72097 781.138747 519.694222 786.553535 501.789737 777.196606 501.871192 796.648727 487.793778 809.999515 506.867071 816.605091 516.075313 834.20703 527.785374 818.832808 547.549091 816.377535 535.705859 800.261172 538.72097 781.138747Z" p-id="8463" fill="#1296db"></path><path d="M390.361212 759.139556 376.158384 744.777697 370.310465 763.329939 352.845576 771.759838 369.008485 783.856485 372.415354 803.426263 388.248566 792.347152 407.827394 796.015192 401.453253 777.071192 410.131394 759.765333 390.361212 759.139556Z" p-id="8464" fill="#1296db"></path><path d="M512.001293 93.090909C280.678141 93.090909 92.481939 281.285818 92.481939 512.60897s188.196202 419.518061 419.519354 419.518061 419.516768-188.194909 419.516768-419.518061S743.323152 93.090909 512.001293 93.090909L512.001293 93.090909zM512.001293 904.274747c-215.965737 0-391.667071-175.701333-391.667071-391.665778S296.035556 120.943192 512.001293 120.943192c215.964444 0 391.664485 175.701333 391.664485 391.665778S727.965737 904.274747 512.001293 904.274747L512.001293 904.274747z" p-id="8465" fill="#1296db"></path><path d="M512.001293 160.819717c-193.976889 0-351.789253 157.812364-351.789253 351.789253s157.811071 351.789253 351.789253 351.789253S863.790545 706.585859 863.790545 512.60897 705.978182 160.819717 512.001293 160.819717L512.001293 160.819717zM512.001293 848.483556c-185.201778 0-335.874586-150.672808-335.874586-335.874586s150.671515-335.874586 335.874586-335.874586c185.201778 0 335.874586 150.672808 335.874586 335.874586 0 68.870465-20.848485 132.957091-56.547556 186.304646l-6.60299-17.943273 8.455758-18.124283-19.858101 1.464889-14.478222-12.770263-5.595798 19.073293-17.414465 10.230949 16.404687 10.316283 3.717172 19.095273 15.728485-12.696566 19.512889 1.552808C730.878707 789.114828 628.247273 848.483556 512.001293 848.483556L512.001293 848.483556z" p-id="8466" fill="#1296db"></path><path d="M650.294303 343.872646c-38.846061-31.877172-87.959273-49.432566-138.29301-49.432566-104.600566 0-194.71903 74.467556-214.286222 177.066667l13.680485 2.609131c18.314343-96.04396 102.680566-165.750949 200.605737-165.750949 47.119515 0 93.094788 16.433131 129.462303 46.272646L650.294303 343.872646 650.294303 343.872646z" p-id="8467" fill="#1296db"></path><path d="M512.001293 716.85301c-47.120808 0-93.097374-16.433131-129.464889-46.272646l-8.832 10.764929c38.847354 31.877172 87.963152 49.433859 138.296889 49.433859 104.59798 0 194.717737-74.468848 214.284929-177.06796l-13.680485-2.609131C694.290101 647.144727 609.923879 716.85301 512.001293 716.85301L512.001293 716.85301z" p-id="8468" fill="#1296db"></path><path d="M256.003879 537.923232l106.524444-41.091879c9.293576-3.584 15.15701-0.986505 17.573495 7.789899l15.654788 40.581172c5.083798 10.673131 1.542465 17.864404-10.614949 21.577697l-95.111758 36.689455 20.057212 51.993859c3.259475 8.450586 8.105374 10.952404 14.54804 7.500283l93.843394-36.199434c14.501495-2.681535 15.524202-17.643313 3.077172-44.895677 1.233455-4.357172 3.770182-5.334626 7.610182-2.934949 14.403232 32.321939 12.249212 50.636283-6.48404 54.948202l-97.647192 37.668202c-8.978101 4.430869-16.007758 1.314909-21.08897-9.347879l-30.329535-78.625616c0.579232-6.050909 3.11596-7.028364 7.608889-2.934949l5.869899 15.217778 93.843394-36.200727c7.937293-2.082909 10.172768-6.348283 6.720646-12.792242l-14.187313-36.774788c-1.114505-5.39798-4.62998-6.95596-10.543838-4.673939l-103.98901 40.113131C254.572606 544.301253 253.593859 541.765818 256.003879 537.923232z" p-id="8469" fill="#1296db"></path><path d="M479.287596 444.507798c4.494222 4.093414 8.560485 8.352323 12.210424 12.771556l55.800242-21.524687c13.522747-5.21697 20.626101 5.643636 21.306182 32.571475-2.41002 3.845172-5.271273 3.980929-8.587636 0.399515 0.236606-19.507717-3.026747-27.968646-9.783596-25.362101l-115.401697 44.516848c-5.072162 1.957495-6.630141 5.471677-4.672646 10.543838l5.869899 15.219071c-1.228283 4.367515-3.76501 5.346263-7.608889 2.936242l-6.848646-17.753212c-3.259475-8.451879-0.67103-14.310141 7.789899-17.574788l53.262222-20.545939c-2.481131-3.89301-5.796202-7.471838-9.964606-10.726141C472.713051 445.10901 474.921374 443.278222 479.287596 444.507798zM440.649697 548.280889l143.300525-55.279192c4.355879 1.232162 5.334626 3.770182 2.936242 7.608889l-45.654626 17.61099 18.589737 48.190061c2.28202 5.913859 5.796202 7.471838 10.543838 4.672646l24.09503-9.294869c6.239677-1.43903 4.862707-12.562101-4.132202-33.370505 1.233455-4.357172 3.770182-5.335919 7.610182-2.936242 11.275636 26.722263 11.094626 41.360808-0.541737 43.916929l-26.631758 10.272323c-8.136404 4.106343-13.988202 1.501091-17.573495-7.789899l-19.568485-50.726788-36.777374 14.187313c16.563717 35.382303 6.530586 63.517737-30.070949 84.445091-4.558869 0.778343-6.379313-1.432566-5.470384-6.631434 33.551515-18.770747 42.863192-43.724283 27.932444-74.877414l-45.654626 17.61099C439.217131 554.660202 438.238384 552.123475 440.649697 548.280889zM447.441455 509.238303l101.452283-39.135677c4.357172 1.230869 5.335919 3.768889 2.936242 7.608889l-101.452283 39.135677C446.010182 515.617616 445.031434 513.080889 447.441455 509.238303z" p-id="8470" fill="#1296db"></path><path d="M671.886222 403.719758c11.46699 24.713051 23.916606 45.657212 37.339798 62.809212 3.422384-18.803071 3.894303-36.467071 1.411879-52.992 2.073859-4.681697 4.774788-5.233778 8.098909-1.666586 2.616889 19.386182 1.857939 40.075636-2.28202 62.067071 16.796444 15.865535 30.236444 24.269576 40.329051 25.236687 5.072162-1.957495 2.614303-14.611394-7.356768-37.953939 0.908929-5.198869 3.445657-6.176323 7.608889-2.936242 9.647838 22.503434 12.918949 37.266101 9.80299 44.295758-1.55798 3.514182-5.201455 5.399273-10.92396 5.672081-12.430222-2.011798-27.05196-10.940768-43.843232-26.794667-7.460202 18.426828-19.973172 36.353293-37.518222 53.807838-5.400566 1.104162-7.231354-1.102869-5.470384-6.630141 16.175838-15.959919 28.260848-33.720889 36.249859-53.317818-14.594586-17.680808-28.280242-40.559192-41.054384-68.66101l-55.798949 21.524687c-6.765899 2.610424-8.838465 7.301172-6.230626 14.05802l6.848646 17.753212 32.97099-12.718545c10.987313-4.238222 18.182465-0.695596 21.576404 10.614949l11.650586 37.754828c4.826505 17.555394-8.46998 24.631596-39.89204 21.215677-4.494222-4.093414-4.203313-7.120162 0.868848-9.076364 24.533333 3.170263 34.83798-0.327111 30.925576-10.472727l-10.671838-35.218101c-1.764848-7.082667-6.450424-9.166869-14.059313-6.230626l-30.435556 11.739798 5.869899 15.217778c12.258263 29.269333 15.826747 53.626828 10.709333 73.081535-3.251717 4.168404-5.850505 3.715879-7.808-1.357576 3.29697-21.669495-0.208162-44.593131-10.510222-68.78901l-16.142222-41.848242c-4.238222-10.987313-0.444768-18.768162 11.394586-23.334788l55.798949-21.524687-9.095758-19.799919c0.908929-5.198869 3.445657-6.176323 7.610182-2.936242l9.094465 19.801212 39.312808-15.164768-14.258424-10.525737c-1.627798-4.221414-0.17196-6.729697 4.384323-7.518384 10.670545 7.539071 21.414788 16.506828 32.231434 26.903273 1.957495 5.072162 0.325818 7.157657-4.874343 6.248727-4.164525-3.242667-7.752404-6.226747-10.742949-8.966465L671.886222 403.719758z" p-id="8471" fill="#1296db"></path></svg>