<svg t="1585107537546" class="icon" viewBox="0 0 1024 1024" version="1.1" xmlns="http://www.w3.org/2000/svg" p-id="7059" width="16" height="16"><path d="M660.54 657.008c-48.327 48.325-114.561 67.821-177.427 58.424l-23.75 13.717c74.171 18.412 155.963-1.397 213.938-59.373 28.005-28.006 47.119-61.599 57.405-97.16l-23.687 13.655c-10.219 25.844-25.713 49.973-46.479 70.737z m-88.014 104.649l-18.481 1.972 9.272 15.619-4.762 18.227 18.226-4.762 15.62 9.269 1.97-18.479 14.413-12.381-16.954-6.669-6.667-16.957-12.637 14.161z m205.491-149.862l17.847-3.238-10.669-15.369 2.729-18.859-17.21 6.031-16.193-8.442 0.065 19.114-12.829 13.588 17.212 5.778 8.254 16.895 10.794-15.498z m-80.773 116.59l17.971 2.35-5.524-17.844 8.317-17.083-18.16 0.509-12.827-12.953-5.715 18.16-16.255 9.146 14.604 10.666 2.796 18.545 14.795-11.495h-0.002v-0.001z m-222.767 62.738l18.669-3.43-11.176-14.35 2.73-17.97-17.971 6.031-17.018-7.746 0.064 18.097-13.336 13.208 18.098 5.146 8.766 15.876 11.175-14.858-0.001-0.004z m-240.102 47.183l703.222-406.029c17.21-9.97 23.178-32.068 13.21-49.278L842.536 195.476c-9.97-17.208-32.067-23.177-49.28-13.208L90.037 588.299c-17.209 9.97-23.179 32.065-13.209 49.275l108.271 187.521c9.906 17.273 32.005 23.244 49.276 13.211z m-38.228-30.1L96.893 636.307c-7.43-12.892-2.983-29.53 9.908-36.959L794.4 202.46c12.891-7.429 29.528-2.983 36.959 9.908l99.253 171.9c7.43 12.891 2.985 29.528-9.907 36.958l-687.661 396.95c-12.828 7.493-29.337 3.048-36.895-9.971h-0.002v0.001z m547.389-68.203c-106.302 106.306-267.917 123.513-392.189 51.692l-17.908 10.416c132.211 81.79 308.05 65.344 422.737-49.341 69.596-69.599 102.933-161.611 100.33-252.736l-17.842 10.349c0 83.06-31.69 166.184-95.128 229.62zM320.674 434.244c10.099-25.717 25.529-49.914 46.357-70.743 48.324-48.324 114.556-67.818 177.426-58.421l23.749-13.715c-74.172-18.416-155.963 1.396-213.938 59.371-28.006 28.006-47.12 61.598-57.406 97.159l23.812-13.651z m110.368-163.327l18.417-1.903-9.272-15.623 4.638-18.098-18.099 4.637-15.623-9.271-1.904 18.416-14.288 12.382 16.956 6.667 6.668 16.955 12.51-14.16-0.003-0.002zM313.5 309.844l-17.909-2.414 5.525 17.717-8.255 17.02 18.161-0.381 12.765 12.89 5.588-18.035 16.128-9.017-14.605-10.668-2.793-18.542-14.606 11.43h0.001z m241.434-81.029l-18.796 2.032 10.161 15.112-4 17.718 18.287-4.7 16.256 8.89 1.145-18.033 14.097-12.192-17.526-6.352L567 214.843l-12.066 13.972z m-270.836 51.754c106.303-106.302 267.913-123.51 392.187-51.69l17.906-10.415c-132.211-81.79-308.049-65.342-422.732 49.344-69.599 69.596-102.937 161.61-100.333 252.736l17.844-10.351c-0.064-82.998 31.687-166.185 95.128-229.624z m-45.404 139.134l-17.781 3.174 10.605 15.177-2.668 18.67 17.146-5.969 16.193 8.447-0.19-18.86 12.7-13.464-17.145-5.714-8.382-16.766-10.479 15.304 0.001 0.001z" fill="#d81e06" p-id="7060"></path><path d="M264.924 619.876c7.34-19.142 10.913-40.027 10.719-62.657l14.048-0.197c-1.403 25.977-5.569 49.211-12.502 69.705-3.812-2.38-7.902-4.664-12.265-6.851z m27.178 46.242c5.558-19.675 7.934-42.904 7.124-69.69l13.462-0.845c-0.009 10.248-0.309 20.004-0.902 29.269l47.659 79.918-11.038 6.582-38.75-64.979c-1.35 10.117-3.144 19.6-5.382 28.448-3.754-2.949-7.813-5.849-12.173-8.703z m24.501-62.296l44.006-26.243-12.638-21.193-37.53 22.381-6.056-10.155 37.53-22.381-12.288-20.605 11.774-7.021 12.288 20.605 37.825-22.557 6.056 10.155-37.825 22.557 12.638 21.193 43.712-26.067 6.144 10.303-99.493 59.332-6.143-10.304z m17.497 28.672l65.642-39.145-8.338-13.982 11.774-7.021 8.338 13.982 22.96-13.692 6.144 10.302-22.96 13.692 20.538 34.44c6.904 11.578 4.223 21.024-8.041 28.338-5.691 3.394-13.422 7.937-23.194 13.632-2.696-3.181-5.938-6.834-9.728-10.958 8.946-4.404 16.804-8.625 23.574-12.662 6.083-3.628 7.135-8.777 3.157-15.449l-18.08-30.319-65.642 39.145-6.144-10.303z m23.499 15.317l4.586-11.715c11.629 3.44 22.159 6.938 31.594 10.489l-5.119 12.828c-9.999-4.277-20.354-8.144-31.061-11.602zM407.128 502.353l64.317-38.354c-4.93-2.579-10.321-5.15-16.172-7.713l6.557-12.092c7.065 2.704 13.494 5.455 19.286 8.251l-4.373 8.395 65.054-38.794 16.412 27.522-11.479 6.846-10.094-16.926-111.708 66.616 10.093 16.925-11.479 6.846-16.414-27.522z m31.443 22.949l48.422-28.875-9.479-15.896 11.48-6.847 9.479 15.896 48.569-28.963 43.007 72.117-10.892 6.494-4.125-6.918-37.678 22.469 19.134 32.086-11.48 6.847-19.134-32.086-37.531 22.381 4.126 6.918-10.892 6.494-43.006-72.117z m27.304 21.028l37.53-22.381-10.269-17.22-37.531 22.38 10.27 17.221z m16.325 27.375l37.531-22.381-10.356-17.367-37.531 22.381 10.356 17.367z m60.095-96.291l-37.678 22.469 10.269 17.22 37.678-22.468-10.269-17.221z m-11.084 67.064l37.678-22.469-10.356-17.367-37.678 22.468 10.356 17.368zM597.445 492.61c0.552-22.938-2.681-45.088-9.695-66.443l-21.047 12.551-6.144-10.303 21.194-12.639-17.467-29.289 11.039-6.583 17.466 29.289 16.778-10.005 6.144 10.303-16.778 10.005 15.447 25.902 1.666-7.576c9.439 1.554 18.437 3.37 26.993 5.45l-3.03 11.982c-7.909-2.332-15.662-4.293-23.259-5.882l45.113 75.65-11.039 6.582-46.517-78.003c4.592 19.075 6.446 35.459 5.568 49.152-3.79-3.457-7.935-6.839-12.432-10.143z m54.847-13.752c13.499-21.75 22.747-43.493 27.742-65.227a6497.664 6497.664 0 0 0-25.119 18.77c-3.396 2.559-6.372 5.264-8.927 8.117l-11.853-7.497c2.735-4.557 4.354-8.98 4.855-13.271 1.677-11.24 2.562-23.475 2.656-36.698l-27.964 16.676-6.319-10.598 45.184-26.945c-7.592-3.585-14.511-6.71-20.753-9.372l5.969-11.74c6.478 2.39 14.16 5.457 23.045 9.202l-4.729 9.803 45.037-26.857 6.319 10.598-52.102 31.07c-0.669 15.163-1.961 29.834-3.881 44.013a5224.628 5224.628 0 0 0 31.68-21.485 169.271 169.271 0 0 0 1.466-31.002l14.167-0.667c0.774 39.442-10.136 78.47-32.731 117.084a423.78 423.78 0 0 0-13.742-3.974z m21.705 26.36c25.132-34.14 39.001-73.669 41.611-118.588l14.045 0.803c-1.183 17.2-3.881 33.639-8.097 49.321 16.783 2.495 32.764 5.202 47.94 8.122l-3.273 14.921c-14.666-3.624-30.761-7.195-48.286-10.71-7.035 21.885-17.149 42.283-30.347 61.193-3.444-1.536-7.975-3.224-13.593-5.062z" fill="#d81e06" p-id="7061"></path></svg>