<svg t="1595214573969" class="icon" viewBox="0 0 1534 1024" version="1.1" xmlns="http://www.w3.org/2000/svg" p-id="5054" width="128" height="128"><path d="M666.901 71.59c-30.43 0.17-60.074 7.4-86.24 25.676-56.066 39.18-81.491 118.017-126.588 173.407-41.747 51.29-95.69 75.14-149.46 103.387-44.857 23.559-63.972 79.39-71.688 134.146-6.085 43.21-8.57 88.624-27.01 126.684-21.17 43.701-60.141 70.967-87.581 109.539-45.092 63.409-54.639 158.747-23.308 232.735 6.71 15.842 15.75 31.398 29.322 39.058 11.106 6.264 23.87 6.5 36.204 6.5h0.67l1122.212-0.133c12.41 0 25.45-0.19 36.25-7.384 17.591-11.71 23.513-37.53 34.773-57.263 22.295-39.068 66.425-54.725 88.685-93.814 9.961-17.493 14.22-37.104 14.236-57.339v-0.342c-0.05-32.185-10.805-65.94-26.417-95.257a255.476 255.476 0 0 0-16.64-27.081c-35.56-50.487-82.528-92.148-104.061-152.621-28.764-80.78-5.334-176.205-29.802-258.922-17.233-58.265-58.92-105.75-108.992-124.159-43.88-16.128-89.871-10.442-136.15-4.756-30.87 3.79-61.87 7.579-92.443 4.894-62.335-5.471-120.364-37.544-180.245-58.643-30.017-10.585-62.166-18.143-93.548-18.311H666.9z" fill="#F7F8F9" p-id="5055"></path><path d="M523.633 286.362h583.974q12.273 0 12.273 12.273v507.27q0 12.272-12.273 12.272H523.633q-12.272 0-12.272-12.272v-507.27q0-12.273 12.272-12.273z" fill="#F2F2F2" p-id="5056"></path><path d="M523.633 286.362h583.974a12.273 12.273 0 0 1 12.273 12.273v29.23H511.36v-29.23a12.273 12.273 0 0 1 12.273-12.273z" fill="#C5CFD6" p-id="5057"></path><path d="M1000.222 488.86h82.84q12.273 0 12.273 12.274v274.022q0 12.273-12.273 12.273h-82.84q-12.273 0-12.273-12.273V501.134q0-12.273 12.273-12.273z" fill="#FFFFFF" p-id="5058"></path><path d="M1021.699 516.474h39.886q6.136 0 6.136 6.137v27.756q0 6.137-6.136 6.137h-39.886q-6.136 0-6.136-6.137v-27.756q0-6.137 6.136-6.137z" fill="#DDE3E9" p-id="5059"></path><path d="M1021.699 568.817h39.886q6.136 0 6.136 6.137v26.217q0 6.136-6.136 6.136h-39.886q-6.136 0-6.136-6.136v-26.217q0-6.137 6.136-6.137z" fill="#AFB9C5" p-id="5060"></path><path d="M1021.699 619.621h39.886q6.136 0 6.136 6.136v26.218q0 6.136-6.136 6.136h-39.886q-6.136 0-6.136-6.136v-26.218q0-6.136 6.136-6.136zM1021.699 721.228h39.886q6.136 0 6.136 6.137v26.217q0 6.137-6.136 6.137h-39.886q-6.136 0-6.136-6.137v-26.217q0-6.137 6.136-6.137z" fill="#DDE3E9" p-id="5061"></path><path d="M1021.699 670.425h39.886q6.136 0 6.136 6.136v26.217q0 6.137-6.136 6.137h-39.886q-6.136 0-6.136-6.137v-26.217q0-6.136 6.136-6.136z" fill="#C5CFD6" p-id="5062"></path><path d="M1000.222 352.328h82.84q12.273 0 12.273 12.272v99.987q0 12.272-12.273 12.272h-82.84q-12.273 0-12.273-12.272V364.6q0-12.272 12.273-12.272z" fill="#FFFFFF" p-id="5063"></path><path d="M1017.097 399.992a24.545 24.545 0 1 0 49.09 0 24.545 24.545 0 1 0-49.09 0zM1007.892 430.617h67.5q4.602 0 4.602 4.602t-4.602 4.602h-67.5q-4.602 0-4.602-4.602t4.602-4.602zM1020.165 445.958h42.954q4.602 0 4.602 4.602t-4.602 4.602h-42.954q-4.602 0-4.602-4.602t4.602-4.602z" fill="#DDE3E9" p-id="5064"></path><path d="M644.049 470.11a24.295 24.295 0 0 0 17.713 7.644c13.429 0 24.32-10.82 24.32-24.162 0-13.346-10.891-24.161-24.32-24.161v-44.872c38.21 0 69.484 31.07 69.484 69.033 0 37.959-31.275 69.034-69.484 69.034-20.07 0-38.209-8.437-50.573-21.855l32.86-30.662z" fill="#F2F2F2" p-id="5065"></path><path d="M662.212 384.559v44.872a24.162 24.162 0 0 0-24.162 24.161H593.18c0-37.963 31.07-69.033 69.033-69.033z" fill="#AFB9C5" p-id="5066"></path><path d="M637.984 453.592c0 7.67 3.61 14.487 9.22 18.89L619.6 507.618c-16.067-12.58-26.422-32.078-26.422-54.026h44.805z" fill="#C5CFD6" p-id="5067"></path><path d="M609.312 672.419q6.929 0 6.929 6.929v44.458q0 6.929-6.929 6.929t-6.929-6.93v-44.457q0-6.929 6.929-6.929zM641.646 635.1q6.928 0 6.928 6.929v81.777q0 6.929-6.929 6.929t-6.929-6.93V642.03q0-6.93 6.93-6.93zM673.974 616.44q6.928 0 6.928 6.93v100.436q0 6.929-6.928 6.929-6.93 0-6.93-6.93V623.37q0-6.929 6.93-6.929zM706.307 635.1q6.929 0 6.929 6.929v81.777q0 6.929-6.93 6.929-6.928 0-6.928-6.93V642.03q0-6.93 6.929-6.93z" fill="#DDE3E9" p-id="5068"></path><path d="M738.636 597.78q6.928 0 6.928 6.93v119.096q0 6.929-6.929 6.929t-6.929-6.93V604.71q0-6.93 6.93-6.93z" fill="#C5CFD6" p-id="5069"></path><path d="M413.486 617.55c-6.034-5.334-10.585-12.273-11.173-20.68-1.682-24.228 32.558-23.66 40.781-12.466 8.218 11.193 11.761 42.013 3.641 45.362-3.237 1.335-10.687 0.225-18.588-3.124l9.102 31.592-26.99 3.794 3.222-44.478z" fill="#FECAC3" p-id="5070"></path><path d="M430.576 572.714c-3.845-0.604-9.25-0.23-11.465 0.342a19.498 19.498 0 0 0 0-9.981c-0.859-3.17-2.69-5.712-4.433-8.402-0.803-1.237-1.688-2.46-2.869-3.324a8.13 8.13 0 0 0-4.096-1.508 10.33 10.33 0 0 0-4.398 0.613c-0.613 0.22-1.145 0.594-1.748 0.844-0.62 0.256-0.987-0.102-1.509-0.44-1.258-0.808-2.966-1.058-4.413-1.028a10.928 10.928 0 0 0-4.684 1.238c-1.406 0.716-2.71 1.739-3.605 3.094a6.694 6.694 0 0 0-0.936 1.979c-0.077 0.296-0.072 0.46-0.332 0.598-0.246 0.133-0.542 0.174-0.793 0.302a10.376 10.376 0 0 0-5.165 6.172c-0.48 1.57-0.445 4.203 0.051 7.092 0.496 2.89 4.194 10.09 7.037 12.503 2.536 2.158 5.993 3.33 9.204 3.605-1.738 2.644-2.695 5.779-3.293 8.913a40.837 40.837 0 0 0-0.629 10.35c0.22 3.304 0.685 6.765 1.902 9.854 1.14 2.89 3.022 5.13 5.81 6.326 1.278 0.547 2.618 0.905 3.957 1.212 1.32 0.306 2.644 0.603 4 0.685 2.556 0.163 5.41-0.327 7.046-2.567 0.588-0.808 1.227-1.81 1.605-2.746 0.133-0.338 0.215-0.563-0.05-0.834-0.308-0.327-0.778-0.547-1.156-0.787a9.747 9.747 0 0 1-4.327-5.917c-0.675-2.582-0.44-6.07 1.959-7.578 2.966-1.856 6.673-0.721 9.695 0.394 0.604-4.367 2.521-8.494 6.096-10.964 3.953-2.73 8.795-3.661 12.912-6.106 1.074-0.639 2.153-1.344 2.858-2.434a4.08 4.08 0 0 0 0.696-1.595c0.081-0.731-0.46-1.258-0.885-1.76-2.28-2.648-10.197-7.542-14.042-8.145z" fill="#191847" p-id="5071"></path><path d="M419.924 751.189l84.38 140.624 63.266 118.892h13.622L475.197 751.189z" fill="#FECAC3" p-id="5072"></path><path d="M559.122 1005.52c-1.192 3.231-1.79 5.66-1.79 7.291 0 2.04 0.343 5.017 1.023 8.934h64.048c1.667-5.482 0.705-8.443-2.88-8.882a355.774 355.774 0 0 1-8.938-1.187l-29.638-13.167a1.278 1.278 0 0 0-1.698 0.675l-1.861 4.495c-3.319 1.544-6.014 2.316-8.09 2.316-1.636 0-3.881-0.64-6.724-1.918a2.557 2.557 0 0 0-3.447 1.442z" fill="#E4E4E4" p-id="5073"></path><path d="M550 991.672l26.278-7.926c-11.516-34.313-25.624-72.066-42.336-113.267a1660.997 1660.997 0 0 0-53.83-119.295h-74.22c21.324 48.477 43.932 92.526 67.822 132.14C497.6 922.94 523.03 959.058 550 991.673z" fill="#5C648C" p-id="5074"></path><path d="M414.381 751.189c-7.967 49.413-23.328 112.55-24.775 114.504-0.972 1.299-35.76 12.917-104.374 34.865l2.945 11.976c81.818-11.767 124.936-20.9 129.339-27.394 6.607-9.736 39.6-86.676 52.373-133.956h-55.508z" fill="#FECAC3" p-id="5075"></path><path d="M309.353 890.202l5.185 19.294c61.2 5.349 98.693 1.483 112.494-11.603 13.797-13.08 29.521-61.987 47.173-146.71h-70.772c-11.183 69.377-17.437 105.525-18.757 108.435-1.319 2.915-26.432 13.106-75.323 30.584z" fill="#7780AA" p-id="5076"></path><path d="M288.264 895.413c-3.39-0.613-5.885-0.782-7.491-0.5-2.01 0.357-4.884 1.206-8.622 2.556l11.122 63.081c5.692 0.686 8.438-0.777 8.249-4.382a355.774 355.774 0 0 1-0.389-9.01l7.824-31.474a1.278 1.278 0 0 0-0.961-1.555l-4.746-1.048c-2.097-3.002-3.324-5.523-3.687-7.568-0.286-1.611-0.046-3.933 0.721-6.955a2.557 2.557 0 0 0-2.02-3.145z" fill="#E4E4E4" p-id="5077"></path><path d="M463.722 678.177l36.036-26.795c5.41-8.591 10.969-15.464 16.67-20.598 1.81-1.074 5.114-2.03 2.746 3.984-2.367 6.008-4.581 12.44-2.735 13.929 1.84 1.493 5.507-1.468 7.823 1.115 1.535 1.723-4.873 5.686-19.237 11.889l-24.724 29.874-16.579-13.398z m63.66 9.394l15.821-11.803c1.125-9.46 3.355-14.456 6.694-14.982 2.403-1.555-0.455 10.605 4.28 8.918 4.73-1.688 15.382-12.17 17.683-10.672 3.406 2.224 1.84 10.738-0.767 15.228-4.894 8.402-9.46 11.68-21.165 16.773-6.121 2.669-12.508 7.184-19.161 13.55l-3.385-17.012z" fill="#FECAC3" p-id="5078"></path><path d="M444.045 676.1c13.654-2.06 31.48-7.5 49.198-22.55l10.028 15.913c-11.552 15.162-28.887 28.718-45.45 30.58-13.05 1.462-21.896-13.28-13.776-23.942z" fill="#B7CDE6" p-id="5079"></path><path d="M466.28 700.753c15.023 1.57 38.76-6.11 71.227-23.026 10.927 16.282 16.598 28.191 17.002 35.724-27.163 19.38-51.325 29.715-71.958 33.074 2.378 12.15 2.52 24.009-1.003 35.356-7.25 23.333-70.542 11.562-90.306 18.409-18.511-39.416 3.738-59.62 0.051-85.985-4.034-28.877 12.979-76.587 16.4-77.063l31.203-4.387c4.817 21.804 16.9 44.892 27.383 67.898z" fill="#D1E2F5" p-id="5080"></path><path d="M1042.946 659.359c17.458-0.905 39.042 9.286 40.904 28.258 1.35 13.78 0.93 27.526 3.027 41.292 1.672 11 5.216 21.559 10.043 31.582 4.638 9.634 14.267 17.836 16.773 28.125 1.6 6.56 0.705 15.79-1.493 22.203-2.68 7.803-1.258 7.184 4.075 13.73 10.457 12.825 19.872 25.977 26.524 41.297 9.593 22.066 15.878 47.864 12.319 72.015-0.455 3.068-0.992 14.073-5.216 14.84-4.715 0.86-2.506-5.436-2.255-7.466 1.6-12.978 3.027-24.315 1.094-37.493-7.47-50.844-43.946-84.344-67.694-127.492-1.309-2.225-4.065-7.528-5.983-11.02-3.017-5.523-6.064-16.021-10.16-20.117-7.712-7.706-0.619 7.793 0.884 10.749 1.898 3.743 3.989 7.721 5.932 11 8.913 15.202 18.86 31.8 28.064 47.469-39.8 9.071-67.832-38.782-78.51-70.236-8.8-25.92-19.329-86.517 21.672-88.736" fill="#C5CFD6" p-id="5081"></path><path d="M1276.873 611.23c-29.173 2.316-47.904 21.569-56.623 48.497-4.704 14.512-5.241 29.419-7.85 44.335-3.932 22.433-12.385 39.436-28.901 55.421-5.114 4.95-8.888 10.033-11.567 15.474-5.319 5.43-9.952 11.572-13.357 19.084-4.347 9.593-5.574 21.104-0.558 30.666 1.35 2.573 4.715 7.737 8.208 10.08-13.065 27.817-20.25 58.284-19.432 88.71 0.486 18.368 1.38 36.747 2.429 55.089 0.281 4.93 1.882 13.06 4.295 4.802 2.2-7.558-0.562-19.422-0.818-27.312-1.242-38.454-2.311-73.421 13.52-109.35a285.614 285.614 0 0 1 5.252-11.208c0.108-0.062 0.205-0.139 0.307-0.21l0.205 0.164c0.117-0.205 0.281-0.46 0.465-0.737 0.527-0.542 0.987-1.227 1.422-1.994 1.406-1.943 2.996-4.23 3.001-5.482v-0.03c9.798-16.001 21.017-31.117 32.487-45.936-0.087 0.107 12.436-16.942 10.498-7.512-0.935 4.546-10.145 13.193-13.863 18.01-8.233 10.708-17.897 24.274-25.926 37.39-1.074 0.625-2.608 3.672-3.707 5.943-0.614 1.15-1.176 2.311-1.739 3.324 28.452 9.398 50.59-9.537 65.68-31.562l0.05-0.076c4.593-6.085 9.297-12.13 15.178-16.942 9.803-8.028 20.306-9.444 31.868-13.397 31.53-10.77 44.938-51.632 49.193-81.956 4.807-34.205-18.69-86.655-59.717-83.285" fill="#DDE3E9" p-id="5082"></path><path d="M1219.238 515.441c-29.94 31.163-44.407 74.393-55.867 115.031-12.794 45.388-21.242 91.483-21.569 138.67-0.21 31.005-1.053 62.203 0.757 93.17 0.64 10.995 1.739 22.015 3.477 32.897 0.149 0.895 4.045 25.184 7.778 19.523 2.122-3.221-3.999-25.2-4.459-28.86-2.603-20.619-3.206-41.395-3.078-62.167 0.204-34.195-0.803-68.215 2.664-102.293 0.516-5.082 0.925-10.431 2.137-15.407 1.279-5.287-0.358-2.981 3.825-5.073 4.06-2.035 9.077-1.748 13.296-4.3 16.71-10.135 25.26-36.164 31.909-53.243 7.614-19.534 12.236-40.357 15.934-60.913 2.71-15.1 4.653-30.11 5.747-45.41 0.348-4.816 0.368-9.858 1.314-14.598 0.256-1.279 1.535-3.54 1.489-4.674-0.098-2.393-1.545-3.805-1.662-5.82a112.343 112.343 0 0 0-3.687 3.467" fill="#DDE3E9" p-id="5083"></path><path d="M1055.96 930.677c0 51.545 41.778 93.323 93.323 93.323s93.324-41.778 93.324-93.323H1055.96z" fill="#89C5CC" p-id="5084"></path><path d="M1156.77 930.973h-4.93c0.343-6.187 0.793-12.364 1.83-18.48 3.954-23.4 16.324-57.764 43.451-61.563 1.002-0.143 4.684-0.164 9.143 0.097a16.533 16.533 0 0 1 6.975-2.06c23.098-1.704 48.886 16.93 60.034 36.321 8.98 15.638 7.466 36.164 1.918 52.773-3.713 11.122-11.823 26.98-25.343 27.133-16.916 0.194-17.73-20.71-18.057-32.937-0.434-16.251-2.49-30.406-15.29-41.482-2.986-2.577-6.248-4.848-9.265-7.394-4.72-3.984-9.936-8.06-10.54-14.645-0.843-9.092 4.291-10.729 12.12-9.041 1.34 0.291 14.794 6.325 12.8 1.554-0.61-1.457-2.828-2.613-5.63-3.477-7.257-0.788-15.904-1.703-18.394-1.156-26.847 5.886-37.294 43.067-40.065 66.687a227.599 227.599 0 0 0-0.757 7.67z" fill="#C5CFD6" p-id="5085"></path><path d="M506.862 562.306L633.85 513.56q5.729-2.199 7.928 3.53l30.42 79.248q2.2 5.729-3.53 7.928l-126.987 48.746q-5.729 2.199-7.928-3.53l-30.42-79.248q-2.2-5.729 3.53-7.928z" fill="#DDE3E9" p-id="5086"></path><path d="M564.292 597.763a8.642 8.642 0 0 1-4.908 4.793 8.622 8.622 0 0 1-11.147-4.924c-1.7-4.43 0.53-9.405 4.99-11.117l-5.716-14.89c-12.685 4.87-19.105 19.165-14.267 31.768 4.838 12.603 19.175 18.931 31.86 14.062a24.412 24.412 0 0 0 14.004-13.701l-14.814-5.986z" fill="#F1F5F8" p-id="5087"></path><path d="M547.363 571.682l5.717 14.895a8.587 8.587 0 0 1 11.1 4.941l14.894-5.717c-4.838-12.604-19.108-18.957-31.711-14.12z" fill="#AFB9C5" p-id="5088"></path><path d="M564.203 591.509c0.975 2.54 0.64 5.264-0.659 7.445l13.643 8.144a24.34 24.34 0 0 0 1.885-21.302l-14.87 5.708z" fill="#C5CFD6" p-id="5089"></path><path d="M599.287 576.387l39.419-15.131q2.879-1.105 3.984 1.774 1.105 2.878-1.774 3.983l-39.419 15.132q-2.878 1.105-3.983-1.774t1.773-3.984zM595.717 597.58l49.621-19.047q2.879-1.105 3.984 1.774 1.105 2.878-1.774 3.983l-49.62 19.048q-2.88 1.105-3.984-1.774-1.105-2.879 1.773-3.984zM610.142 552.398l23.388-8.978q2.879-1.105 3.984 1.774 1.105 2.878-1.774 3.983l-23.388 8.978q-2.878 1.105-3.983-1.774-1.105-2.878 1.773-3.983z" fill="#F1F5F8" p-id="5090"></path></svg>