<svg t="1593681177930" class="icon" viewBox="0 0 1024 1024" version="1.1" xmlns="http://www.w3.org/2000/svg" p-id="2025" width="48" height="48"><path d="M933.298232 847.75495 771.238252 703.985546c20.061918-25.075095 36.364209-52.945863 48.587602-83.189677 16.437367-40.669258 24.772196-83.84664 24.772196-128.330784 0-44.485167-8.334829-87.661525-24.772196-128.331807-15.899108-39.339983-38.673811-74.683956-67.690682-105.050568-29.092595-30.445406-63.001893-54.364165-100.787474-71.088058-39.213094-17.35732-80.864726-26.157753-123.798561-26.157753s-84.587514 8.800433-123.799584 26.157753c-37.784558 16.723893-71.694879 40.642652-100.788497 71.088058-29.016871 30.366611-51.791573 65.710584-67.692728 105.050568-16.437367 40.669258-24.771173 83.84664-24.771173 128.331807 0 44.484144 8.334829 87.661525 24.771173 128.330784 15.900132 39.339983 38.675858 74.683956 67.692728 105.049544 29.093619 30.446429 63.003939 54.364165 100.788497 71.088058 39.213094 17.356296 80.865749 26.157753 123.799584 26.157753s84.58649-8.801457 123.798561-26.157753c31.382754-13.891382 60.0824-32.760125 85.580121-56.195883l163.013701 144.616702c4.78498 4.244674 10.738575 6.332219 16.668635 6.332219 6.936993 0 13.842263-2.856048 18.808368-8.453533C944.632371 872.849488 943.68172 856.965729 933.298232 847.75495L933.298232 847.75495zM527.550161 772.827447c-147.107429 0-266.788206-125.770472-266.788206-280.362362 0-154.593937 119.680776-280.365432 266.788206-280.365432 147.106406 0 266.785136 125.771495 266.785136 280.365432C794.335297 647.057999 674.655544 772.827447 527.550161 772.827447L527.550161 772.827447z" p-id="2026" fill="#ffffff"></path><path d="M669.3804 519.845689l-284.479123 0c-13.507642 0-24.559349-11.051707-24.559349-24.559349l0 0c0-13.507642 11.051707-24.559349 24.559349-24.559349l284.479123 0c13.507642 0 24.559349 11.051707 24.559349 24.559349l0 0C693.939749 508.793982 682.888042 519.845689 669.3804 519.845689z" p-id="2027" fill="#ffffff"></path><path d="M551.700187 353.046778l0 284.479123c0 13.507642-11.051707 24.559349-24.559349 24.559349l0 0c-13.507642 0-24.559349-11.051707-24.559349-24.559349l0-284.479123c0-13.507642 11.051707-24.559349 24.559349-24.559349l0 0C540.64848 328.48743 551.700187 339.539136 551.700187 353.046778z" p-id="2028" fill="#ffffff"></path></svg>