<svg t="1595228658924" class="icon" viewBox="0 0 1024 1024" version="1.1" xmlns="http://www.w3.org/2000/svg" p-id="23572" width="64" height="64"><path d="M512 961.024c-247.808 0-449.024-201.216-449.024-449.024 0-247.808 201.216-449.024 449.024-449.024 247.808 0 449.024 201.216 449.024 449.024 0 247.808-201.216 449.024-449.024 449.024zM512 133.12c-208.896 0-378.88 169.984-378.88 378.88s169.984 378.88 378.88 378.88 378.88-169.984 378.88-378.88-169.984-378.88-378.88-378.88z" fill="#ffffff" p-id="23573"></path><path d="M512 960.512c-247.296 0-448.512-201.216-448.512-448.512S264.704 63.488 512 63.488s448.512 201.216 448.512 448.512-201.216 448.512-448.512 448.512z m0-827.904c-209.408 0-379.392 169.984-379.392 379.392 0 209.408 169.984 379.392 379.392 379.392 209.408 0 379.392-169.984 379.392-379.392 0-209.408-169.984-379.392-379.392-379.392z" fill="#ffffff" p-id="23574"></path><path d="M512 646.656c-19.456 0-35.328-15.872-35.328-34.816v-45.568c0-47.616 34.816-82.432 66.048-113.152 19.968-19.968 41.984-41.984 41.984-56.832 0-40.448-32.768-73.728-73.216-73.728-40.96 0-73.216 31.744-73.216 71.68 0 19.456-15.872 35.328-35.328 35.328-19.456 0-35.328-15.872-35.328-35.328 0-78.336 64-141.824 143.36-141.824 78.848 0 142.848 64.512 142.848 143.872 0 43.52-33.28 76.8-62.464 106.496-22.528 22.528-45.568 45.568-45.568 64v45.568c1.024 18.944-14.336 34.304-33.792 34.304z" fill="#ffffff" p-id="23575"></path><path d="M512 646.144c-18.944 0-34.816-15.36-34.816-34.816v-45.568c0-47.104 34.816-82.432 65.536-113.152 19.968-19.968 42.496-42.496 42.496-57.344 0-40.96-32.768-74.24-73.216-74.24-40.96 0-73.728 31.744-73.728 72.192 0 18.944-15.36 34.816-34.816 34.816s-34.816-15.36-34.816-34.816c0-77.824 64-141.312 142.848-141.312s142.336 64 142.336 143.36c0 43.52-33.28 76.8-62.464 105.984-22.528 22.528-45.568 45.568-45.568 64v45.568c1.024 19.968-14.848 35.328-33.792 35.328zM512 804.864c-28.16 0-51.2-23.04-51.2-51.2s23.04-51.2 51.2-51.2 51.2 23.04 51.2 51.2-23.04 51.2-51.2 51.2z" fill="#ffffff" p-id="23576"></path><path d="M512 804.352c-27.648 0-50.688-22.528-50.688-50.688s22.528-50.688 50.688-50.688 50.688 22.528 50.688 50.688-23.04 50.688-50.688 50.688z" fill="#ffffff" p-id="23577"></path></svg>