<svg t="1576117481155" class="icon" viewBox="0 0 1024 1024" version="1.1" xmlns="http://www.w3.org/2000/svg" p-id="2211" width="200" height="200"><path d="M943.94 298.48L776.8 126a57.64 57.64 0 0 0-41.4-17.53H288.8A57.64 57.64 0 0 0 247.4 126L80.26 298.48a57.64 57.64 0 0 0-15.91 46.32l56.15 518.8a57.64 57.64 0 0 0 57.31 51.4h668.57a57.64 57.64 0 0 0 57.31-51.44l56.16-518.8a57.65 57.65 0 0 0-15.91-46.28zM846.38 857.4H177.81L127.87 396h768.46z m56.16-518.75H121.66L288.8 180.22h446.6L902.54 338.6z" p-id="2212" fill="#ffffff"></path><path d="M621.41 794.06a27 27 0 0 0 41.37 0l82.74-92.93c10.44-11.75 11.29-30.11 2.64-43a7.59 7.59 0 0 0-6.32-3.29h-55a7.71 7.71 0 0 1-7.71-7.71V456.88a7.71 7.71 0 0 0-7.71-7.71h-58.65a7.71 7.71 0 0 0-7.71 7.71v190.28a7.71 7.71 0 0 1-7.71 7.71h-55a7.59 7.59 0 0 0-6.32 3.29c-8.65 12.86-7.8 31.23 2.64 43zM278 608.28h35.09a4.92 4.92 0 0 1 4.91 4.92v121.38a4.92 4.92 0 0 0 5 4.92h37.4a4.92 4.92 0 0 0 4.92-4.92V613.2a4.92 4.92 0 0 1 4.92-4.92h35.09a4.84 4.84 0 0 0 4-2.1c5.52-8.2 5-19.92-1.68-27.41l-52.78-59.28a17.25 17.25 0 0 0-26.39 0l-52.78 59.28c-6.66 7.49-7.2 19.21-1.68 27.41a4.84 4.84 0 0 0 3.98 2.1z" p-id="2213" fill="#ffffff"></path></svg>