<svg t="1588152932141" class="icon" viewBox="0 0 1024 1024" version="1.1" xmlns="http://www.w3.org/2000/svg" p-id="2105" width="128" height="128"><path d="M512 984.5c-260.5 0-472.5-212-472.5-472.5S251.5 39.5 512 39.5s472.5 212 472.5 472.5-212 472.5-472.5 472.5z m0-881.4c-225.5 0-408.9 183.4-408.9 408.9S286.5 920.9 512 920.9 920.9 737.5 920.9 512 737.5 103.1 512 103.1z" fill="#ffffff" p-id="2106"></path><path d="M230.6 893.4c-1.4-6.4-34.6-158 13.8-331.4 28.6-102.5 79.9-191.1 152.4-263.3 90.1-89.6 212.9-153.6 365.2-190.1l12.1 50.6c-142.8 34.3-257.4 93.6-340.6 176.4-66.1 65.7-112.8 146.6-139 240.4-44.9 160.9-13.5 304.5-13.1 306l-50.8 11.4z" fill="#ffffff" p-id="2107"></path><path d="M277.4 922.9l-12.1-50.6c139.6-33.5 251.5-91.5 332.8-172.3 64.5-64.2 110.2-143.2 135.8-234.8 43.9-157.2 13.2-297.5 12.9-298.9l50.8-11.4c1.4 6.2 33.8 154.7-13.5 324.4-28 100.4-78.2 187.1-149.2 257.7-88.2 87.6-208.5 150.2-357.5 185.9z" fill="#ffffff" p-id="2108"></path><path d="M834.6 815.2c-5.3-1.9-130.7-47.1-234.5-161.4-61.5-67.7-102.4-145.5-121.8-231.3-24-106.4-14.3-224.8 28.6-352l49.3 16.7c-39.9 118-49 226.9-27.2 323.8 17.3 76.9 54.2 146.8 109.5 207.7 95.3 104.8 212.3 147 213.5 147.5l-17.4 49z" fill="#ffffff" p-id="2109"></path><path d="M593.7 823.9c-95.1 0-184.4-21.7-266-64.7C219.8 702.3 126 607.9 48.9 478.8l44.7-26.7c72.1 120.8 159 208.6 258.3 261 78.9 41.6 166.1 61.3 259.2 58.5 159.8-4.9 282.1-74.5 283.4-75.2l26 45.1c-5.4 3.1-135 76.9-307.8 82.2-6.3 0.1-12.7 0.2-19 0.2z" fill="#ffffff" p-id="2110"></path><path d="M515.1 774.7m-52.3 0a52.3 52.3 0 1 0 104.6 0 52.3 52.3 0 1 0-104.6 0Z" fill="#ffffff" p-id="2111"></path><path d="M515.1 853.1c-43.2 0-78.4-35.2-78.4-78.4s35.2-78.4 78.4-78.4 78.4 35.2 78.4 78.4-35.2 78.4-78.4 78.4z m0-104.7c-14.5 0-26.3 11.8-26.3 26.3s11.8 26.3 26.3 26.3 26.3-11.8 26.3-26.3-11.8-26.3-26.3-26.3z" fill="#ffffff" p-id="2112"></path><path d="M323.7 413.1m-52.3 0a52.3 52.3 0 1 0 104.6 0 52.3 52.3 0 1 0-104.6 0Z" fill="#ffffff" p-id="2113"></path><path d="M323.7 491.5c-43.2 0-78.4-35.2-78.4-78.4s35.2-78.4 78.4-78.4 78.4 35.2 78.4 78.4-35.2 78.4-78.4 78.4z m0-104.7c-14.5 0-26.3 11.8-26.3 26.3s11.8 26.3 26.3 26.3 26.3-11.8 26.3-26.3-11.8-26.3-26.3-26.3z" fill="#ffffff" p-id="2114"></path><path d="M768.1 391m-52.3 0a52.3 52.3 0 1 0 104.6 0 52.3 52.3 0 1 0-104.6 0Z" fill="#ffffff" p-id="2115"></path><path d="M768.1 469.4c-43.2 0-78.4-35.2-78.4-78.4s35.2-78.4 78.4-78.4 78.4 35.2 78.4 78.4-35.2 78.4-78.4 78.4z m0-104.6c-14.5 0-26.3 11.8-26.3 26.3s11.8 26.3 26.3 26.3 26.3-11.8 26.3-26.3c-0.1-14.6-11.8-26.3-26.3-26.3z" fill="#ffffff" p-id="2116"></path></svg>