<svg t="1594871361019" class="icon" viewBox="0 0 1025 1024" version="1.1" xmlns="http://www.w3.org/2000/svg" p-id="2103" width="64" height="64"><path d="M512.150588 0.301176c282.834824 0 512.180706 229.074824 512.180706 511.698824 0 282.593882-229.345882 511.698824-512.180706 511.698824C229.285647 1023.698824 0 794.593882 0 512 0 229.376 229.285647 0.301176 512.150588 0.301176z" fill="#51af39" p-id="2104"></path><path d="M826.217412 303.375059c-23.883294-23.04-62.704941-23.04-86.648471 0l-303.194353 292.050824-151.642353-146.040471c-23.913412-23.070118-62.704941-23.070118-86.648471 0-23.913412 23.04-23.913412 60.416 0 83.456l194.831059 187.602824c0.030118 0.030118 0.060235 0.090353 0.120471 0.150588 23.913412 23.04 62.704941 23.04 86.648471 0l346.533647-333.793882C850.160941 363.791059 850.160941 326.445176 826.217412 303.375059z" fill="#ffffff" p-id="2105"></path></svg>