<svg t="1594369928336" class="icon" viewBox="0 0 1024 1024" version="1.1" xmlns="http://www.w3.org/2000/svg" p-id="2113" width="48" height="48"><path d="M765.6 572c-106.4 0-192.8 86.4-192.8 192.8s86.4 192.8 192.8 192.8 192.8-86.4 192.8-192.8c0.8-106.4-85.6-192.8-192.8-192.8z m-25.6 304.8l-113.6-114.4 54.4-54.4 53.6 53.6 110.4-109.6 60 60.8c-54.4 55.2-109.6 109.6-164.8 164zM64 64.8v727.2h447.2v-52h-395.2v-169.6h486.4c44-36 100-58.4 161.6-58.4 5.6 0 12 0 17.6 0.8v-1.6h-665.6V341.6h676v169.6h52v-445.6H64v-0.8z m728.8 221.6h-676v-169.6h676v169.6z m-619.2-113.6h112.8v58.4h-112.8v-58.4z m280.8 452.8h58.4v58.4h-58.4v-58.4z m-280.8 0h112.8v58.4h-112.8v-58.4z m508.8-228.8h58.4v58.4h-58.4v-58.4z m-115.2 0h58.4v58.4h-58.4v-58.4z m-112.8 0h58.4v58.4h-58.4v-58.4z m-280.8 0h112.8v58.4h-112.8v-58.4z m508.8-224h58.4v58.4h-58.4v-58.4z m-115.2 0h58.4v58.4h-58.4v-58.4z m-112.8 0h58.4v58.4h-58.4v-58.4z" p-id="2114" fill="#ffffff"></path></svg>