<svg t="1595231706807" class="icon" viewBox="0 0 1024 1024" version="1.1" xmlns="http://www.w3.org/2000/svg" p-id="31905" width="128" height="128"><path d="M559.50441 459.076836c0.289 2.456502-3.179002 3.179002-4.046003 0.867001-8.236506-23.047767 1.156001-28.394271 4.046003-0.867001z" p-id="31906" fill="#ffffff"></path><path d="M511.385875 44.795033c-209.597404 0-379.601778 169.932124-379.601778 379.601778 0 48.913286 9.248007 95.58682 26.082269 138.503351 5.707754 14.450011 12.210259 28.538771 19.579764 42.049531 41.18253 81.78706 148.546109 263.857193 333.939745 374.183024C696.77951 868.806886 804.143089 686.881253 845.325619 605.021943c29.116771-53.754039 45.662033-115.238834 45.662034-180.697382C890.987653 214.727157 721.055528 44.795033 511.385875 44.795033z m0 706.244267c-178.09638 0-322.451986-144.355606-322.451987-322.451986s144.355606-322.451986 322.451987-322.451986 322.451986 144.355606 322.451986 322.451986-144.355606 322.451986-322.451986 322.451986z" p-id="31907" fill="#ffffff"></path><path d="M651.117477 366.813519c8.959007-6.141254 18.857264-10.548508 29.261271-13.07726h-1.661751c-24.637268 0-46.962534 9.970507-63.074296 26.154519l-115.600085 115.527835c13.51076-7.658506 29.116771-12.065759 45.734284-12.065759 11.343258 0 22.180766 2.023001 32.223523 5.780004 8.814506 1.878501 17.484513 5.202004 25.721019 9.970508 30.778523 17.773513 46.962534 51.080787 44.361533 84.243561-2.456502-12.427009-7.152755-24.420518-13.79976-35.330276 2.817752 8.886757 4.335003 18.351513 4.335003 28.105271 0 16.039512-4.046003 31.139773-11.271009 44.289282l114.082834-114.082833c16.328512-16.184012 26.515769-38.581528 26.515769-63.435547 0-28.827771-13.65526-54.40429-34.824525-70.660551-26.371269-13.07726-55.849291-14.30551-82.00381-5.418754z m22.108516 188.644888c-5.780004-29.189021-23.698017-55.849291-51.514288-71.888803-27.81627-16.039512-59.823044-18.207013-88.000564-8.597756 27.45502-18.857264 64.374797-21.458266 95.15332-3.757003 30.778523 17.773513 46.962534 51.080787 44.361532 84.243562z m27.81627-26.73252c-5.780004-29.189021-23.698017-55.849291-51.514287-71.888802-27.81627-16.039512-59.823044-18.207013-88.000565-8.597757 27.45502-18.857264 64.374797-21.458266 95.15332-3.757002 30.778523 17.701263 46.962534 51.008537 44.361532 84.243561z m27.31052-26.732519c-5.780004-29.189021-23.698017-55.849291-51.514287-71.888803C649.022225 413.992803 617.015452 411.825302 588.837931 421.434559c27.45502-18.857264 64.374797-21.458266 95.15332-3.757003 30.778523 17.773513 46.962534 51.080787 44.361532 84.315812z m27.816271-26.80477c-5.780004-29.189021-23.698017-55.849291-51.514288-71.888803-27.81627-16.039512-59.823044-18.207013-88.000564-8.597756 27.45502-18.857264 64.374797-21.458266 95.153319-3.757003 30.778523 17.773513 46.962534 51.080787 44.361533 84.243562z" p-id="31908" fill="#ffffff"></path><path d="M456.548084 576.121922c0 49.274536 39.954279 89.228815 89.228816 89.228815s89.228815-39.954279 89.228815-89.228815-39.954279-89.228815-89.228815-89.228815-89.228815 39.954279-89.228816 89.228815zM276.284202 576.121922c0 49.274536 39.954279 89.228815 89.228816 89.228815s89.228815-39.954279 89.228815-89.228815-39.954279-89.228815-89.228815-89.228815-89.228815 39.954279-89.228816 89.228815zM554.374656 204.5399c8.959007-6.141254 18.857264-10.548508 29.261271-13.07726h-1.661751c-24.637268 0-46.962534 9.970507-63.074296 26.154519l-115.600085 115.527835c13.51076-7.658506 29.116771-12.065759 45.734284-12.065759 11.343258 0 22.180766 2.023001 32.223523 5.780004 8.814506 1.878501 17.484513 5.202004 25.721019 9.970508 30.778523 17.773513 46.962534 51.080787 44.361533 84.243561-2.456502-12.427009-7.152755-24.420518-13.79976-35.330275 2.817752 8.886757 4.335003 18.351513 4.335003 28.10527 0 16.039512-4.046003 31.139773-11.271008 44.289283l114.082833-114.082834c16.328512-16.184012 26.515769-38.581528 26.51577-63.435546 0-28.827771-13.65526-54.40429-34.824526-70.660552-26.299019-13.07726-55.777041-14.30551-82.00381-5.418754z m22.108516 188.644888c-5.780004-29.189021-23.698017-55.849291-51.514288-71.888803-27.81627-16.039512-59.823044-18.207013-88.000564-8.597756 27.45502-18.857264 64.374797-21.458266 95.15332-3.757003 30.778523 17.773513 46.962534 51.080787 44.361532 84.243562z m27.816271-26.73252c-5.780004-29.189021-23.698017-55.849291-51.514288-71.888802-27.81627-16.039512-59.823044-18.207013-88.000565-8.597757 27.45502-18.857264 64.374797-21.458266 95.15332-3.757002 30.850773 17.701263 46.962534 51.008537 44.361533 84.243561z m27.31052-26.732519c-5.780004-29.189021-23.698017-55.849291-51.514288-71.888803-27.81627-16.039512-59.823044-18.207013-88.000565-8.597756 27.45502-18.857264 64.374797-21.458266 95.15332-3.757003 30.778523 17.701263 46.962534 51.008537 44.361533 84.243562z m27.81627-26.80477c-5.780004-29.189021-23.698017-55.849291-51.514288-71.888802-27.81627-16.039512-59.823044-18.207013-88.000564-8.597757 27.45502-18.857264 64.374797-21.458266 95.153319-3.757003 30.778523 17.701263 46.962534 51.080787 44.361533 84.243562z" p-id="31909" fill="#ffffff"></path><path d="M359.877514 413.848303c0 49.274536 39.954279 89.228815 89.228815 89.228815S538.335144 463.122839 538.335144 413.848303s-39.954279-89.228815-89.228815-89.228815-89.228815 39.954279-89.228815 89.228815z" p-id="31910" fill="#ffffff"></path></svg>