<svg t="1595465811963" class="icon" viewBox="0 0 1024 1024" version="1.1" xmlns="http://www.w3.org/2000/svg" p-id="1769" width="48" height="48"><path d="M829.54969 975.792047L546.282967 836.931183a42.703958 42.703958 0 0 1-19.623981-57.079945 42.617958 42.617958 0 0 1 56.994944-19.62498l232.202773 113.947888L916.109605 187.759817 464.672046 729.553288V981.339042a42.659958 42.659958 0 1 1-85.321916 0V715.603301c0-2.217998 0.17-4.436996 0.468999-6.611993a42.617958 42.617958 0 0 1 9.683991-22.524978l425.329584-510.480502-681.935334 353.829655 160.703843 83.315918c21.074979 11.091989 29.521971 36.816964 19.069982 58.189943a41.38096 41.38096 0 0 1-55.331946 19.069982L24.837476 569.360444A43.812957 43.812957 0 0 1 5.000495 548.116465a42.233959 42.233959 0 0 1 17.489983-57.122944L959.538563 4.829995A42.830958 42.830958 0 0 1 979.844543 0.01a42.447959 42.447959 0 0 1 42.617959 34.852966 42.894958 42.894958 0 0 1-0.81 20.64798l-129.689873 887.731133c-2.771997 19.196981-17.873983 33.530967-36.132965 36.261964a42.404959 42.404959 0 0 1-26.321974-3.626996z" p-id="1770" fill="#ffffff"></path></svg>