<svg t="1584671275718" class="icon" viewBox="0 0 1024 1024" version="1.1" xmlns="http://www.w3.org/2000/svg" p-id="2748" width="200" height="200"><path d="M512 0C229.376 0 0.238933 229.1456 0.238933 511.761067c0 174.08 86.946133 327.8336 219.758934 420.283733 25.8816-90.129067 91.2896-158.037333 180.292266-189.0304 3.703467-1.297067 7.4496-2.517333 11.2384-3.6864l1.792-0.5632a325.358933 325.358933 0 0 1 27.067734-6.8608c0.930133-0.196267 1.877333-0.375467 2.807466-0.5632a344.823467 344.823467 0 0 1 25.147734-4.0704c1.2544-0.162133 2.500267-0.3328 3.754666-0.469333a354.781867 354.781867 0 0 1 14.165334-1.365334h51.712c4.753067 0.3584 9.454933 0.827733 14.122666 1.3568 1.314133 0.1536 2.628267 0.3328 3.933867 0.494934a344.789333 344.789333 0 0 1 24.567467 3.968c1.143467 0.2304 2.304 0.443733 3.456 0.682666 9.002667 1.902933 17.826133 4.138667 26.4448 6.715734 1.066667 0.315733 2.116267 0.657067 3.1744 0.989866 3.2256 0.9984 6.4256 2.048 9.591466 3.140267 89.284267 30.882133 154.9056 98.8416 180.906667 189.149867 132.718933-92.4672 219.5968-246.1696 219.5968-420.181334C1023.7696 229.137067 794.624 0 512 0z m0 725.3248c-130.372267 0-236.4928-103.569067-240.7424-232.900267l-0.4352-0.256c-4.992-93.354667 43.810133-165.0688 105.6-206.976l1.058133-0.7424c2.3552-1.578667 4.744533-3.072 7.1424-4.573866 0.938667-0.5888 1.851733-1.194667 2.798934-1.774934 38.033067-23.099733 79.889067-35.1744 116.7104-34.474666 2.619733-0.085333 5.230933-0.2048 7.876266-0.2048 2.5088 0 4.974933 0.119467 7.466667 0.187733 28.2368-0.4864 59.400533 6.536533 89.557333 20.215467a241.024 241.024 0 0 1 61.730134 39.381333c50.2272 43.0848 86.587733 107.844267 82.184533 188.962133l-0.196267 0.110934C748.5696 621.678933 642.414933 725.333333 512 725.333333z" fill="#D8E4F8" p-id="2749"></path><path d="M376.413867 285.192533c0.3584-0.238933 0.708267-0.503467 1.066666-0.7424-0.3584 0.247467-0.708267 0.503467-1.066666 0.7424z m143.0528-41.582933c-2.491733-0.068267-4.957867-0.187733-7.466667-0.187733-2.645333 0-5.256533 0.119467-7.876267 0.2048 2.525867 0.0512 5.0432 0.1024 7.517867 0.273066 2.602667-0.170667 5.213867-0.256 7.825067-0.290133z m-47.189334 143.112533c-46.3104 81.237333-124.757333 153.207467-201.019733 105.7024C275.5072 621.755733 381.627733 725.3248 512 725.3248c130.414933 0 236.561067-103.645867 240.7424-233.045333-63.7184 39.662933-230.8096-17.8688-280.465067-105.557334zM384.6144 279.876267c0.938667-0.580267 1.860267-1.194667 2.798933-1.774934-0.9472 0.580267-1.860267 1.194667-2.798933 1.774934z m224.418133-16.0512a260.3008 260.3008 0 0 1 61.7216 39.381333 241.134933 241.134933 0 0 0-61.7216-39.381333z" fill="#FCE9EA" p-id="2750"></path><path d="M610.500267 738.653867c1.066667 0.315733 2.116267 0.6656 3.1744 0.989866-1.058133-0.324267-2.107733-0.674133-3.1744-0.989866z m-170.120534-6.749867l2.816-0.5632c-0.938667 0.187733-1.885867 0.366933-2.816 0.5632z m-28.8512 7.424l1.792-0.5632-1.792 0.5632z m211.7376 3.456l2.176 0.768c-2.7136 7.714133-6.2208 15.121067-10.453333 22.1184 17.143467 26.3936 12.842667 141.482667-12.919467 123.392l-45.098666-31.752533L512 825.668267l2.952533-2.0736c-0.981333 0.0256-1.962667 0.068267-2.961066 0.068266-1.024 0-2.048-0.0512-3.072-0.0768l2.961066 2.082134-44.9792 31.6416-45.098666 31.752533c-25.898667 18.1248-30.190933-97.399467-12.885334-123.528533a119.287467 119.287467 0 0 1-10.350933-21.9136l1.706667-0.605867c-89.002667 30.993067-154.402133 98.901333-180.283734 189.0304A509.346133 509.346133 0 0 0 512 1023.522133a509.354667 509.354667 0 0 0 292.155733-91.579733c-25.984-90.3168-91.605333-158.276267-180.8896-189.1584z m-42.666666-11.52c1.143467 0.2304 2.304 0.443733 3.456 0.682667-1.143467-0.238933-2.304-0.4608-3.456-0.682667z m-112.264534-3.9936c1.2544-0.1536 2.500267-0.324267 3.754667-0.469333-1.2544 0.145067-2.500267 0.315733-3.754667 0.469333z m83.754667-0.477867c1.322667 0.145067 2.628267 0.3328 3.9424 0.494934-1.314133-0.162133-2.619733-0.341333-3.9424-0.494934z" fill="#56B9FF" p-id="2751"></path><path d="M408.925867 765.525333c3.438933-5.188267 7.7312-6.869333 12.885333-3.2512l45.090133 31.752534 42.018134 29.559466c1.024 0.0256 2.048 0.085333 3.072 0.085334 0.9984 0 1.979733-0.0512 2.961066-0.085334l42.026667-29.559466 45.090133-31.752534c5.179733-3.652267 9.472-1.911467 12.919467 3.387734 4.241067-6.997333 7.739733-14.395733 10.461867-22.101334l-2.184534-0.776533a307.362133 307.362133 0 0 0-9.591466-3.140267c-1.058133-0.3328-2.107733-0.682667-3.1744-0.989866a327.355733 327.355733 0 0 0-26.453334-6.7072c-1.134933-0.247467-2.304-0.4608-3.447466-0.682667a331.8016 331.8016 0 0 0-24.567467-3.976533 367.752533 367.752533 0 0 0-18.065067-1.851734h-51.694933c-4.736 0.366933-9.454933 0.8192-14.165333 1.365334-1.262933 0.136533-2.5088 0.315733-3.7632 0.469333-8.430933 1.041067-16.8192 2.397867-25.147734 4.0704l-2.816 0.5632a328.6784 328.6784 0 0 0-27.050666 6.8608c-0.605867 0.1792-1.194667 0.384-1.792 0.5632-3.797333 1.160533-7.543467 2.389333-11.246934 3.6864l-1.7152 0.597333c2.696533 7.637333 6.1696 14.984533 10.350934 21.9136z" fill="#FEFEFE" p-id="2752"></path><path d="M602.069333 762.274133l-45.090133 31.752534-42.026667 29.568-2.952533 2.0736 44.970667 31.6416 45.098666 31.752533c25.770667 18.090667 30.062933-96.9984 12.919467-123.392-3.438933-5.307733-7.739733-7.048533-12.919467-3.396267z m-180.266666 0c-5.1456-3.618133-9.437867-1.937067-12.8768 3.2512-17.314133 26.129067-13.021867 141.661867 12.885333 123.537067l45.090133-31.752533 44.9792-31.6416-2.961066-2.082134-42.018134-29.559466-45.098666-31.752534z" fill="#D81E06" p-id="2753"></path><path d="M472.277333 386.730667c49.655467 87.68 216.746667 145.211733 280.465067 105.557333l0.2048-0.119467c4.4032-81.117867-31.965867-145.877333-82.193067-188.962133a260.514133 260.514133 0 0 0-61.7216-39.381333c-30.1568-13.678933-61.329067-20.701867-89.565866-20.215467a155.904 155.904 0 0 0-7.816534 0.290133c8.337067 29.5168-8.2688 88.260267-39.3728 142.8224z" fill="#2C2C2C" p-id="2754"></path><path d="M472.277333 386.730667c31.104-54.5792 47.709867-113.322667 39.3728-142.830934a148.932267 148.932267 0 0 0-7.517866-0.273066c-36.821333-0.699733-78.677333 11.374933-116.718934 34.474666-0.938667 0.571733-1.860267 1.194667-2.798933 1.774934-2.389333 1.493333-4.778667 2.986667-7.133867 4.573866-0.3584 0.247467-0.708267 0.503467-1.066666 0.7424-61.781333 41.9072-110.592 113.621333-105.6 206.976l0.443733 0.256c76.253867 47.505067 154.709333-24.456533 201.019733-105.7024z" fill="#515151" p-id="2755"></path></svg>