<svg t="1584671495658" class="icon" viewBox="0 0 1024 1024" version="1.1" xmlns="http://www.w3.org/2000/svg" p-id="3469" width="200" height="200"><path d="M511.002144 511.001949m-511.001949 0a511.001949 511.001949 0 1 0 1022.003899 0 511.001949 511.001949 0 1 0-1022.003899 0Z" fill="#FFFFFF" p-id="3470"></path><path d="M169.668811 632.065497m-53.196101 0a53.196101 53.196101 0 1 0 106.392202 0 53.196101 53.196101 0 1 0-106.392202 0Z" fill="#FCE4BF" p-id="3471"></path><path d="M169.668811 697.837037c-36.22924 0-65.671735-29.442495-65.671735-65.671735s29.442495-65.671735 65.671735-65.671735 65.671735 29.442495 65.671735 65.671735-29.442495 65.671735-65.671735 65.671735z m0-106.492008c-22.45614 0-40.720468 18.264327-40.720468 40.720468s18.264327 40.720468 40.720468 40.720468c22.45614 0 40.720468-18.264327 40.720468-40.720468s-18.264327-40.720468-40.720468-40.720468z" fill="#6B5863" p-id="3472"></path><path d="M852.335478 632.963743m-53.196102 0a53.196101 53.196101 0 1 0 106.392203 0 53.196101 53.196101 0 1 0-106.392203 0Z" fill="#FCE4BF" p-id="3473"></path><path d="M852.335478 698.635478c-36.22924 0-65.671735-29.442495-65.671735-65.671735s29.442495-65.671735 65.671735-65.671735 65.671735 29.442495 65.671734 65.671735-29.442495 65.671735-65.671734 65.671735z m0-106.392203c-22.45614 0-40.720468 18.264327-40.720468 40.720468s18.264327 40.720468 40.720468 40.720468 40.720468-18.264327 40.720467-40.720468-18.264327-40.720468-40.720467-40.720468z" fill="#6B5863" p-id="3474"></path><path d="M513.896491 540.244834m-329.356725 0a329.356725 329.356725 0 1 0 658.71345 0 329.356725 329.356725 0 1 0-658.71345 0Z" fill="#FCE4BF" p-id="3475"></path><path d="M513.896491 882.077193c-46.109942 0-90.922417-9.082261-133.040156-26.847563-40.720468-17.266277-77.249123-41.818324-108.687719-73.25692-31.438596-31.438596-55.990643-67.967251-73.25692-108.68772-17.865107-42.117739-26.847563-86.930214-26.847563-133.040156s9.082261-90.922417 26.847563-133.040156c17.266277-40.720468 41.818324-77.249123 73.25692-108.687719s67.967251-55.990643 108.687719-73.25692c42.117739-17.865107 86.930214-26.847563 133.040156-26.847563s90.922417 9.082261 133.040156 26.847563c40.720468 17.266277 77.249123 41.818324 108.687719 73.25692s55.990643 67.967251 73.256921 108.687719c17.865107 42.117739 26.847563 86.930214 26.847563 133.040156s-9.082261 90.922417-26.847563 133.040156c-17.266277 40.720468-41.818324 77.249123-73.256921 108.68772-31.438596 31.438596-67.967251 55.990643-108.687719 73.25692-42.117739 17.865107-86.930214 26.847563-133.040156 26.847563z m0-658.71345c-84.634698 0-164.179337 32.935673-224.062378 92.818713s-92.818713 139.42768-92.818713 224.062378c0 84.634698 32.935673 164.179337 92.818713 224.062378s139.42768 92.818713 224.062378 92.818714c84.634698 0 164.179337-32.935673 224.062378-92.818714s92.818713-139.42768 92.818714-224.062378c0-84.634698-32.935673-164.179337-92.818714-224.062378s-139.42768-92.818713-224.062378-92.818713z" fill="#6B5863" p-id="3476"></path><path d="M375.267251 632.963743m-23.454191 0a23.454191 23.454191 0 1 0 46.908382 0 23.454191 23.454191 0 1 0-46.908382 0Z" fill="#6B5863" p-id="3477"></path><path d="M662.705848 632.963743m-23.454191 0a23.454191 23.454191 0 1 0 46.908382 0 23.454191 23.454191 0 1 0-46.908382 0Z" fill="#6B5863" p-id="3478"></path><path d="M623.282846 686.658869a34.432749 14.97076 0 1 0 68.865497 0 34.432749 14.97076 0 1 0-68.865497 0Z" fill="#FFD5C9" p-id="3479"></path><path d="M347.820858 686.658869a34.432749 14.97076 0 1 0 68.865497 0 34.432749 14.97076 0 1 0-68.865497 0Z" fill="#FFD5C9" p-id="3480"></path><path d="M507.109747 636.85614l-24.252632 31.638207c-6.187914 8.084211-0.299415 19.661598 9.780897 19.461988l48.804678-0.698635c10.080312-0.099805 15.569591-11.776998 9.381676-19.661599l-24.651851-31.039376c-4.790643-6.088109-14.272125-5.988304-19.062768 0.299415z" fill="#FFDB9E" p-id="3481"></path><path d="M444.132749 717.598441c0.698635 41.518908 31.638207 74.853801 69.763742 74.853801s68.965302-33.334893 69.763743-74.853801H444.132749z" fill="#FFFFFF" p-id="3482"></path><path d="M513.896491 799.937622c-20.460039 0-39.822222-8.583236-54.393762-24.252632-14.37193-15.469786-22.45614-36.02963-22.855361-57.986744l-0.099805-7.585186h154.697856l-0.099805 7.585186c-0.39922 21.957115-8.483431 42.516959-22.855361 57.986744-14.671345 15.669396-33.933723 24.252632-54.393762 24.252632z m-61.779337-74.853801c1.796491 15.369981 8.184016 29.442495 18.364133 40.421052 11.677193 12.575439 27.047173 19.461988 43.415204 19.461989 16.268226 0 31.738012-6.88655 43.415205-19.461989 10.180117-10.978558 16.567641-25.051072 18.364132-40.421052H452.117154z" fill="#6B5863" p-id="3483"></path><path d="M512.69883 589.648343c168.670565 0 305.403509-44.213645 305.403509-98.807017h-610.807017c0 54.593372 136.732943 98.807018 305.403508 98.807017z" fill="#3BCA82" p-id="3484"></path><path d="M512.69883 602.123977c-82.838207 0-160.88577-10.479532-219.77076-29.542301-81.041715-26.248733-98.108382-58.88499-98.108382-81.74035v-12.475634h635.758285v12.475634c0 22.855361-16.966862 55.491618-98.108382 81.74035-58.88499 19.062768-136.932554 29.5423-219.770761 29.542301z m-289.135282-98.807018c9.581287 16.168421 36.82807 32.536452 77.049512 45.511111 56.489669 18.264327 131.842495 28.344639 212.08577 28.34464 80.34308 0 155.596101-10.080312 212.08577-28.34464 40.221442-12.974659 67.468226-29.34269 77.049513-45.511111H223.563548z" fill="#6B5863" p-id="3485"></path><path d="M878.085185 508.007797c-5.289669-197.31462-166.874074-355.605458-365.386355-355.605458S152.602144 310.693177 147.312476 508.007797h730.772709z" fill="#3BCA82" p-id="3486"></path><path d="M890.960039 520.483431h-756.522417l0.299415-12.775049c2.694737-98.807018 43.115789-191.226511 113.977388-260.391423 70.961404-69.264717 164.678363-107.390253 263.8846-107.390253 99.206238 0 192.923197 38.125536 263.884601 107.390253 70.861598 69.065107 111.382456 161.584405 113.977388 260.391423l0.499025 12.775049z m-730.672904-24.951267h704.723586c-5.489279-87.42924-42.816374-168.77037-105.893177-230.350098-66.270565-64.673684-153.79961-100.304094-246.518519-100.304093s-180.148148 35.630409-246.518518 100.304093c-62.976998 61.479922-100.304094 142.920858-105.793372 230.350098z" fill="#6B5863" p-id="3487"></path><path d="M574.877388 508.007797h-130.744639V199.410526c0-25.949318 21.058869-47.008187 47.008187-47.008187h36.62846c25.949318 0 47.008187 21.058869 47.008187 47.008187V508.007797z" fill="#3BCA82" p-id="3488"></path><path d="M587.353021 520.483431h-155.695906V199.410526c0-32.835867 26.747758-59.483821 59.483821-59.48382h36.62846c32.835867 0 59.483821 26.747758 59.48382 59.48382v321.072905z m-130.744639-24.951267h105.793372V199.410526c0-19.062768-15.469786-34.532554-34.532553-34.532553H491.140936c-19.062768 0-34.532554 15.469786-34.532554 34.532553v296.121638z" fill="#6B5863" p-id="3489"></path></svg>