<svg t="1584671516976" class="icon" viewBox="0 0 1024 1024" version="1.1" xmlns="http://www.w3.org/2000/svg" p-id="3623" width="200" height="200"><path d="M676.66526815 864.89113283v1.03563064c0.12945383-0.38836148 0.12945383-0.77672297 0.25890766-1.03563064 0 0-0.12945383 0-0.12945384-0.12945381 0 0 0 0.12945383-0.12945382 0.12945381z" fill="#F6AE2F" p-id="3624"></path><path d="M716.01923161 652.06904098l0.90617678 2.33016889c0.12945383-0.12945383 0.25890765-0.12945383 0.38836148-0.25890765-0.38836148-0.64726914-0.77672297-1.4239921-1.29453826-2.07126124zM718.99666963 653.10467161c-0.51781531 0.38836148-1.03563061 0.64726914-1.55344593 1.03563061 0.51781531 0.9061768 1.03563061 1.68289975 1.55344593 2.58907654 0.12945383-1.16508445 0.12945383-2.33016889 0-3.62470715z" fill="#DB8B28" p-id="3625"></path><path d="M718.86721581 656.72937876c-0.51781531-0.9061768-1.03563061-1.81235358-1.55344594-2.58907654-0.12945383 0.12945383-0.25890765 0.12945383-0.38836148 0.25890765l1.68289976 4.53088396c0.12945383-0.77672297 0.25890765-1.4239921 0.25890766-2.20071507z" fill="#DB8B28" p-id="3626"></path><path d="M116.64801185 465.91443753c-43.10812445 177.22228939 9.32067555 351.20823309 186.54296495 394.31635753 177.22228939 43.10812445 412.18098569-61.10220642 455.15965629-238.19504197 43.10812445-177.22228939-65.63309037-355.86857086-242.85537976-398.84724148-177.09283555-43.23757827-355.73911703 65.50363653-398.84724148 242.72592592z" fill="#F7BF8F" p-id="3627"></path><path d="M110.04586667 443.13056395C66.93774222 620.35285333 127.52213333 795.37442765 304.74442272 838.4825521c177.22228939 43.10812445 412.69880098-57.73640691 447.00406518-239.2306726 33.91690272-179.1640968-78.06065778-340.07520395-255.28294715-383.18332839-177.22228939-43.10812445-343.31154963 49.83972347-386.41967408 227.06201284z" fill="#FAD7B5" p-id="3628"></path><path d="M789.16064395 552.64850173c5.82542222-122.07495902-27.31475753-291.40056494-267.45160692-355.0918479-41.68413235-11.00357531-142.39920987-22.78387358-255.54185481 39.61287111-94.88965531 52.29934617-153.40278518 119.09752098-167.90161383 245.83281778-8.41449876 73.01195852 0.9061768 115.08445235 0.90617679 115.08445234s-27.05584987-122.72222815 89.5820484-162.33509925c27.57366518-9.32067555 122.98113581-43.75539358 169.84342124-90.61767901-0.38836148 30.29219555 14.7577363 65.11527506 61.62002171 96.44310123-31.71618765-42.46085531-40.13068642-56.95968395-38.44778666-89.97040988 0.25890765 0.12945383-3.49525333 0-3.23634568 0.12945382 33.14017975 78.31956543 85.56897975 125.57021235 140.45740248 129.97164248-57.73640691-25.37295013-61.23166025-44.40266272-82.9799032-82.33263408 26.02021925 35.08198717 26.02021925 30.0332879 128.02983505 118.7091595 74.04758914 64.46800592 78.70792691 149.90753185 80.77918815 155.3445926 2.07126124 5.56651457 8.54395259 71.45851259-25.2434963 126.34693531-8.54395259 13.8515595 101.23289283-44.79102419 109.00012246-76.63666568 7.37886815-29.38601876 56.7007763-89.71150222 60.58439112-170.49069037z" fill="#946728" p-id="3629"></path><path d="M488.30994963 539.83257283c-9.83849086-6.60214518-19.02971259-7.63777581-22.78387358-7.89668344h-1.55344592c-4.53088395 0.38836148-8.41449876-2.97743803-8.80286026-7.50832198-0.38836148-4.53088395 2.97743803-8.41449876 7.50832198-8.80286024 1.03563061-0.12945383 17.08790518-1.16508445 34.69362568 10.61521381 3.75416098 2.58907653 4.78979161 7.63777581 2.20071506 11.26248297-1.4239921 2.07126124-3.62470717 3.3657995-5.95487606 3.62470716-1.81235358 0.25890765-3.75416098-0.12945383-5.3076069-1.29453828z m-24.3373195-7.76722963zM145.12785383 495.68881778c-2.45962272-3.75416098-1.4239921-8.80286025 2.33016889-11.26248296 0.9061768-0.64726914 14.23992098-9.19122173 35.59980246-7.37886815 4.40143013 0.38836148 7.76722963 4.40143013 7.37886815 8.80286024-0.38836148 4.53088395-4.40143013 7.76722963-8.80286024 7.37886815-12.16865975-1.03563061-20.58315852 2.45962272-23.8195042 4.01306864-1.03563061 0.64726914-1.29453827 0.64726914-1.29453828 0.64726913-1.68289975 1.03563061-3.49525333 1.4239921-5.30760691 1.29453828-2.45962272-0.12945383-4.66033778-1.4239921-6.08432987-3.49525333z" fill="#C59A59" p-id="3630"></path><path d="M428.63173531 632.00369778c-4.91924543 31.84564148-41.29577086 60.06657581-79.35519606 42.71976297-27.70311902-12.55702124-40.13068642-21.48933531-36.63543308-53.3349768 4.40143013-40.5190479 40.00123259-57.60695309 70.16397433-53.8527921 30.16274173 3.75416098 50.74590025 32.62236445 45.82665481 64.46800593zM106.80952098 590.57847309c-6.99050667 37.41215605 15.66391309 68.86943605 49.96917729 64.20909827 24.98458864-3.3657995 36.37652543-3.3657995 43.88484742-34.82307951 9.45012939-39.74232494-12.03920592-66.92762864-35.98816396-72.62359703-24.20786569-5.69596839-51.91098469 11.52139061-57.86586075 43.23757827z" fill="#F7BF8F" p-id="3631"></path><path d="M113.41166617 603.65330963c-5.43706075 30.81001086 11.00357531 49.0630005 34.95253333 53.98224592 23.94895803 4.91924543 46.34447013-5.43706075 51.78153087-36.2470716 5.43706075-30.81001086-9.45012939-59.80766815-33.52854123-64.72691358-23.81950419-4.91924543-47.76846222 16.18172839-53.20552297 46.99173926z" fill="#FFFFFF" p-id="3632"></path><path d="M144.22167703 608.31364741c-2.84798419 13.98101333 3.75416098 27.44421136 14.62828247 30.16274173 10.87412148 2.71853037 22.00715061-6.47269136 24.85513481-20.58315853 2.84798419-13.98101333-3.62470717-27.57366518-14.49882862-30.16274172-11.00357531-2.58907653-22.13660445 6.60214518-24.98458866 20.58315852z" fill="#241000" p-id="3633"></path><path d="M416.7219832 639.2531121c-4.91924543 31.71618765-30.68055703 42.20194765-59.80766814 38.57724049-28.99765728-3.62470717-50.35753876-20.0653432-45.43829333-51.78153086 4.91924543-31.58673383 32.3634568-54.37060741 61.4905679-50.61644642 29.12711111 3.49525333 48.67463902 32.10454914 43.75539357 63.82073679z" fill="#FFFFFF" p-id="3634"></path><path d="M367.01171358 630.7091595c-2.97743803 13.46319803-13.98101333 23.04278124-27.18530371 20.06534322-13.20429037-2.97743803-20.32425086-14.11046717-17.34681284-27.57366519 2.97743803-13.33374419 15.01664395-24.07841185 28.0914805-21.10097383 13.20429037 3.10689185 19.41807408 15.27555161 16.44063605 28.6092958z" fill="#241000" p-id="3635"></path><path d="M304.09715358 760.55134815c-11.52139061 7.37886815-24.59622717 11.26248297-37.92997136 12.68647505-12.94538272-0.12945383-28.22093431 1.16508445-43.75539358-1.55344592 23.56059653 22.3955121 67.96325925 21.8776968 88.93477926-14.49882864-2.84798419 1.4239921-4.2719763 2.07126124-7.24941432 3.36579951z" fill="#E26B53" p-id="3636"></path><path d="M206.23006025 648.83269531c0 0.12945383 0 0.12945383 0 0-2.33016889 2.97743803-3.62470717 6.34323753-4.40143012 10.09739852 0.38836148 1.29453827 0.77672297 2.45962272 1.16508444 3.75416099 4.91924543 3.75416098 11.13302914 6.73159902 15.92282074 6.34323753 5.69596839-0.38836148 23.81950419-14.11046717 22.78387358-20.19479704-1.03563061-6.99050667-21.23042765-4.40143013-35.47034864 0z" fill="#FDFAED" p-id="3637"></path><path d="M239.75860148 638.47638914c-5.82542222 1.29453827-19.67698173 4.78979161-27.1853037 6.86105283-12.55702124 3.3657995-24.98458864 11.00357531-19.0297126 26.02021927 1.94180741 4.66033778 7.89668347 9.0617679 15.27555162 12.81592889 12.29811358 5.04869925 34.43471803 9.5795832 37.92997135 5.95487604-9.70903703-8.93231408-17.73517431-7.76722963-27.70311901-13.98101334-5.30760691-2.71853037-12.29811358-8.28504494-13.07483655-10.22685233-2.71853037-6.86105283 4.78979161-11.26248297 11.65084444-14.11046717 5.43706075-2.33016889 19.93588939-5.04869925 22.13660445-13.33374419z" fill="#EAA878" p-id="3638"></path><path d="M775.43853827 465.13771457c-12.03920592-13.20429037-28.60929581-19.15916642-43.23757827-13.72210568-20.84206617 7.76722963-29.77438025 35.47034864-20.0653432 61.87892938 9.83849086 26.40858075 34.56417185 41.55467852 55.40623802 33.91690271 14.23992098-5.30760691 22.91332741-19.93588939 23.94895801-37.28270222-18.51189728-5.95487605-24.3373195-29.25656494-16.05227456-44.79102419z" fill="#E25165" p-id="3639"></path><path d="M462.9369995 226.68376494c2.33016889 5.56651457-42.8492168 23.94895803-66.2803595 52.55825382-23.43114272 28.47984197-40.5190479 72.75305086-38.96560197 91.00604049 1.68289975 18.25298963-16.95845136 3.23634569-16.95845136 3.23634569s18.25298963-59.28985283 45.17938568-93.59511704c16.6995437-21.10097383 75.85994272-56.44186864 77.02502715-53.20552296z" fill="#FAD7B5" p-id="3640"></path><path d="M321.44396642 859.19516445s105.24596148-5.04869925 158.45148444-47.6390084c46.47392395-37.15324839 121.29823605-152.75551605 52.16989234-294.1190953l-15.40500542-37.54160989 66.53926716-41.55467851s27.96202667 188.87313383 21.10097382 220.7187753c-6.86105283 31.84564148-41.16631703 135.53815703-62.65565234 152.75551605-21.23042765 17.34681283-118.57970569 71.71742025-220.20096 47.38010075z" fill="#869C93" p-id="3641"></path><path d="M478.47145876 824.50153876c9.70903703 1.03563061 111.58919902-7.1199605 169.1961521-56.18296098 57.60695309-49.0630005 120.90987457-149.51917037 120.90987457-149.51917037l-24.98458863-38.5772405s-24.72568098 75.47158124-78.70792693 121.68659754c-53.98224592 46.2150163-96.57255506 77.28393482-125.95857382 77.2839348-29.25656494-0.12945383-60.45493728 45.3088395-60.45493729 45.30883951z" fill="#869C93" p-id="3642"></path><path d="M619.05831506 644.56071902c-9.96794469 14.49882864-23.69005037 55.53569185-10.61521382 65.37418271 19.5475279 14.7577363 50.61644642 2.71853037 70.68178962-21.61878914s22.52496592-57.08913778 3.62470717-72.36468939c-18.90025876-15.40500543-45.95610864 2.71853037-63.69128297 28.60929582z" fill="#FAD7B5" p-id="3643"></path><path d="M675.24127605 668.76858469c-15.27555161-10.35630617-53.07606914-11.00357531-60.97275258 16.82899753 2.97743803-56.05350717 76.63666569-73.52977383 60.97275258-16.82899753z" fill="#F3B07D" p-id="3644"></path><path d="M44.80113778 443.90728691s4.01306864 33.26963358 139.16286419 67.57489778c114.17827555 28.99765728 289.58821136 44.79102419 311.2070005 44.40266272 49.0630005-1.03563061 219.03587555-10.61521383 339.94575012-95.92528593 123.75785876-87.2518795 157.2864-185.24842667 141.62248691-189.64985679-132.69017283-37.54160987-270.17013728-121.29823605-465.51596247-123.36949728-195.21637136-2.20071506-431.3401521 69.38725136-466.42213925 296.9670795z" fill="#F7B200" p-id="3645"></path><path d="M558.08556247 547.98816395s128.93601185 71.9763279 157.02749235 112.36592197l28.09148049 40.38959408s57.99531457-26.92639605 106.66995358-79.6141037c54.37060741-58.90149136 111.33029136-180.84699653 109.38848394-221.75440593-1.94180741-40.90740939-209.32683852-23.30168889-314.05498468 39.61287111-104.8576 63.04401383-115.34336 99.16163161-87.12242568 109.00012247z" fill="#F7B200" p-id="3646"></path><path d="M119.88435753 466.30279902c173.20922075 60.58439111 407.90900939 89.84095605 571.40919308-2.71853038 151.71988543-85.95734124 247.25680987-147.31845531 267.71051457-199.09998617-126.21748148-40.00123259-259.29601581-115.21390617-444.41498865-117.15571358-189.39094914-2.07126124-417.22968494 65.11527506-462.79743208 276.77228247 14.36937482 16.44063605 36.24707161 31.06891852 68.09271308 42.20194766z" fill="#FCCC00" p-id="3647"></path><path d="M422.02959013 436.01060347c-6.73159902 6.99050667 75.85994272 50.74590025 128.41819654 46.86228542 48.41573136-3.62470717 126.7352968-51.13426173 147.05954764-91.26494814 12.55702124-24.72568098-212.95154569-20.32425086-275.47774418 44.40266272z m130.23055012-145.24719408c-7.37886815 6.34323753 43.23757827 50.48699259 95.92528592 46.47392394 48.41573136-3.62470717 141.36357925-20.84206617 157.41585383-37.92997136 11.00357531-11.78029827-195.73418667-57.60695309-253.34113975-8.54395258z m-90.22931753-10.09739853c40.64850173-12.55702124 115.99062914-25.37295013 125.18185086-41.55467851 11.00357531-19.15916642-177.99901235-19.67698173-226.41474371 24.3373195-5.95487605 5.56651457 57.08913778 30.93946469 101.23289285 17.21735901z m36.50597925 52.94661531c10.87412148-25.37295013-210.10356148-2.71853037-261.88509234 56.31241481-6.34323753 7.24941431 65.37418272 50.48699259 114.56663704 31.58673384 45.43829333-17.47626667 138.12723358-66.40981333 147.3184553-87.89914865z" fill="#EFA600" p-id="3648"></path><path d="M602.74713283 576.46800592c-12.68647506-4.2719763 94.63074765-20.97152 159.74602272-49.58081579 65.11527506-28.60929581 144.21156347-94.76020148 128.80655803-44.40266272-15.40500543 50.48699259-62.52619852 132.17235753-103.30415408 166.73652939-33.26963358 28.22093431-51.0048079 38.5772405-60.0665758 32.49291061-9.0617679-6.2137837-96.96091653-95.53692445-125.18185087-105.24596149z" fill="#DB8B28" p-id="3649"></path><path d="M249.20873086 503.32659358l1.16508445 1.9418074c0.12945383 0 0.12945383 0 0.25890766-0.12945381l-1.42399211-1.81235359z" fill="#946728" p-id="3650"></path><path d="M109.78695902 338.40241778c1.94180741-5.30760691 54.88842272-80.26137283 105.37541529-93.33620939 50.48699259-13.07483653 76.50721185-17.73517431 68.61052841-11.39193678-7.89668347 6.34323753-78.31956543 76.37775803-96.83146272 99.54999308-18.64135111 23.17223506-82.07372642 19.02971259-77.15448098 5.17815309z" fill="#FFE100" p-id="3651"></path><path d="M421.77068247 434.97497283c-3.62470717 3.75416098 18.64135111 18.25298963 48.28627753 30.16274174 0.38836148-4.66033778 1.4239921-9.0617679 2.97743803-12.16865975 9.96794469-20.45370469 31.19837235-28.99765728 51.78153086-33.91690272 24.98458864-5.95487605 50.22808494-14.7577363 75.85994272-16.31118223 20.0653432-1.16508445 46.60337778-5.95487605 66.02145186-1.55344592 6.60214518 1.4239921 12.42756741 4.78979161 17.99408196 7.6377758 5.30760691-6.08432987 9.70903703-12.16865975 12.68647507-18.1235358 12.42756741-24.85513482-213.0809995-20.45370469-275.60719803 44.27320888z m130.23055012-145.24719407c-5.04869925 4.2719763 16.31118222 25.50240395 46.7328316 37.80051754 10.35630617-21.48933531 35.08198717-27.1853037 63.3029215-30.16274173 30.93946469-3.23634569 72.75305086-6.86105283 100.32671604 8.41449876 4.53088395 2.58907653 8.28504494 4.91924543 11.78029827 7.1199605 15.01664395-4.66033778 26.40858075-9.70903703 31.06891852-14.7577363 11.13302914-11.65084445-195.60473283-57.47749925-253.21168593-8.41449877z m-89.5820484 71.32905877c0.9061768 0.25890765 1.94180741 0.38836148 2.97743803 0.5178153 17.08790518-11.26248297 29.77438025-21.61878914 32.88127209-28.86820344 10.87412148-25.37295013-210.10356148-2.71853037-261.88509234 56.3124148-3.3657995 3.88361482 15.01664395 17.73517431 40.38959408 27.18530371-1.55344592-6.86105283-1.94180741-13.46319803 3.23634568-21.35988148 10.35630617-15.27555161 29.90383408-22.78387358 46.7328316-27.1853037 30.29219555-7.89668347 61.23166025-13.46319803 92.94784791-15.40500544 18.90025876-1.16508445 26.40858075 4.40143013 42.71976295 8.80286025z m-55.7945995-79.74355753c-0.25890765-1.55344592-0.51781531-3.10689185-0.5178153-4.91924543 0.25890765-24.20786569 49.71026963-26.02021925 66.53926714-29.1271111 26.53803457-4.91924543 56.31241482-4.66033778 83.88608-3.36579952 7.63777581 0.38836148 15.14609778 1.03563061 22.52496594 1.16508444 3.88361482-2.20071506 6.60214518-4.53088395 7.89668345-6.86105284 11.00357531-19.15916642-177.99901235-19.67698173-226.4147437 24.33731951-3.62470717 3.23634569 18.38244347 13.98101333 46.08556247 18.77080494z" fill="#E3902A" p-id="3652"></path></svg>