<svg t="1584671410601" class="icon" viewBox="0 0 1024 1024" version="1.1" xmlns="http://www.w3.org/2000/svg" p-id="3039" width="200" height="200"><path d="M512 0C230.4 0 0 227.84 0 512c0 174.08 87.04 327.68 220.16 419.84 0-2.56 0-5.12 2.56-5.12v-2.56c2.56-5.12 2.56-7.68 5.12-12.8 2.56-2.56 2.56-7.68 5.12-10.24 0 0 0-2.56 2.56-2.56 2.56-7.68 7.68-12.8 10.24-20.48 0 0 0-2.56 2.56-2.56 5.12-7.68 7.68-15.36 12.8-20.48l2.56-2.56c2.56-2.56 5.12-7.68 7.68-10.24 0-2.56 2.56-2.56 2.56-5.12V496.64v-7.68c0-10.24 0-20.48 2.56-30.72v-2.56-5.12c7.68-43.52 25.6-81.92 51.2-115.2 43.52-53.76 110.08-87.04 186.88-87.04 102.4-7.68 250.88 89.6 240.64 248.32v340.48c0 2.56 2.56 2.56 2.56 5.12 0 0 0 2.56 2.56 2.56 2.56 2.56 5.12 5.12 7.68 10.24 5.12 7.68 10.24 15.36 12.8 23.04 2.56 5.12 5.12 7.68 7.68 12.8 2.56 2.56 2.56 7.68 5.12 10.24 2.56 7.68 7.68 17.92 10.24 25.6 0 2.56 2.56 5.12 2.56 7.68C936.96 839.68 1024 686.08 1024 512 1024 227.84 793.6 0 512 0z" fill="#EFF3F6" p-id="3040"></path><path d="M276.48 826.88c2.56-2.56 5.12-5.12 7.68-10.24l7.68-7.68 2.56-2.56c2.56-2.56 5.12-5.12 10.24-7.68 23.04-20.48 51.2-38.4 84.48-48.64 2.56 0 5.12-2.56 5.12-2.56 2.56 0 5.12-2.56 5.12-2.56 2.56 0 5.12-2.56 5.12-2.56 2.56 0 5.12-2.56 5.12-2.56 2.56 0 5.12-2.56 7.68-2.56 2.56 0 5.12-2.56 10.24-2.56 2.56 0 5.12 0 7.68-2.56h5.12c5.12 0 10.24-2.56 12.8-2.56h12.8c5.12 0 10.24 0 12.8-2.56h25.6c-130.56 0-238.08-104.96-240.64-232.96v340.48c7.68-2.56 10.24-5.12 12.8-7.68-2.56 2.56 0 0 0 0z" fill="#222C3C" p-id="3041"></path><path d="M512 243.2c-74.24 0-140.8 33.28-186.88 87.04 46.08-53.76 115.2-87.04 186.88-87.04z m-238.08 207.36c0-2.56 2.56-2.56 2.56-5.12 0 2.56-2.56 2.56-2.56 5.12zM512 724.48c130.56 0 235.52-104.96 240.64-232.96-64 38.4-230.4-17.92-279.04-104.96-69.12 112.64-138.24 143.36-199.68 104.96 0-12.8 0-25.6 2.56-38.4 0 10.24-2.56 20.48-2.56 30.72v7.68c2.56 130.56 107.52 232.96 238.08 232.96z" fill="#F7E9EA" p-id="3042"></path><path d="M512 243.2c5.12 40.96-7.68 89.6-38.4 143.36 48.64 87.04 215.04 145.92 279.04 104.96-5.12 130.56-110.08 232.96-240.64 232.96h25.6c5.12 0 10.24 0 12.8 2.56h17.92c2.56 0 5.12 0 7.68 2.56h5.12c2.56 0 5.12 0 7.68 2.56 2.56 0 7.68 2.56 10.24 2.56 2.56 0 5.12 2.56 7.68 2.56 2.56 0 5.12 2.56 5.12 2.56 2.56 0 5.12 2.56 5.12 2.56 2.56 0 5.12 2.56 5.12 2.56 2.56 0 5.12 2.56 5.12 2.56 30.72 12.8 58.88 28.16 81.92 48.64l2.56 2.56c2.56 2.56 7.68 5.12 10.24 10.24l2.56 2.56 17.92 17.92v2.56c0 2.56 2.56 2.56 2.56 5.12V496.64C762.88 332.8 614.4 235.52 512 243.2z" fill="#354052" p-id="3043"></path><path d="M716.8 796.16c-23.04-20.48-51.2-35.84-81.92-48.64h2.56v133.12h-250.88v-133.12c2.56 0 2.56 0 5.12-2.56-30.72 12.8-58.88 28.16-84.48 48.64v184.32c64 28.16 133.12 43.52 204.8 43.52 81.92 0 158.72-17.92 227.84-53.76-7.68 2.56-15.36 7.68-23.04 10.24v-181.76z m74.24 99.84l2.56 5.12-2.56-5.12z m10.24 28.16v0z m-542.72-71.68c0-2.56 2.56-2.56 2.56-5.12 0 0-2.56 2.56-2.56 5.12z m-30.72 58.88v-2.56 2.56z m-5.12 15.36c0-2.56 2.56-2.56 2.56-5.12 0 2.56-2.56 2.56-2.56 5.12z m20.48-51.2c0-2.56 2.56-2.56 2.56-5.12 0 2.56 0 5.12-2.56 5.12z m-10.24 23.04c0-2.56 2.56-2.56 2.56-5.12 0 2.56-2.56 5.12-2.56 5.12z m545.28-25.6v2.56c2.56-2.56 2.56-2.56 0-2.56z m-20.48-35.84c0 2.56 2.56 2.56 2.56 5.12-2.56-2.56-2.56-2.56-2.56-5.12z m7.68 10.24c0 2.56 2.56 2.56 2.56 5.12 0-2.56-2.56-2.56-2.56-5.12z m-325.12-112.64c2.56-2.56 5.12-2.56 5.12-5.12l-5.12 5.12z m28.16-5.12c2.56 0 2.56-2.56 5.12-2.56-2.56 0-5.12 2.56-5.12 2.56z m-184.32 87.04z m7.68-5.12c0-2.56 2.56-2.56 2.56-5.12 0 0 0 2.56-2.56 5.12z m-15.36 15.36c0 2.56-2.56 2.56-2.56 5.12 0-2.56 2.56-2.56 2.56-5.12zM409.6 742.4c2.56-2.56 5.12-2.56 5.12-5.12l-5.12 5.12z m320 64c0 2.56 2.56 2.56 2.56 5.12 0-2.56-2.56-2.56-2.56-5.12z m-176.64-79.36c2.56 0 2.56 2.56 5.12 2.56-2.56 0-5.12-2.56-5.12-2.56z m56.32 10.24c2.56 2.56 5.12 2.56 5.12 5.12l-5.12-5.12z m143.36 94.72c0-2.56-2.56-2.56-2.56-5.12 0 2.56 0 2.56 2.56 5.12z m-174.08-102.4c2.56 2.56 5.12 2.56 5.12 5.12l-5.12-5.12z" fill="#7460EE" p-id="3044"></path><path d="M622.08 742.4c-2.56 0-5.12-2.56-5.12-2.56-2.56 0-5.12-2.56-5.12-2.56-2.56 0-5.12-2.56-7.68-2.56-2.56 0-7.68-2.56-10.24-2.56-2.56 0-5.12 0-7.68-2.56h-5.12c-5.12 0-7.68-2.56-12.8-2.56h-12.8c-5.12 0-10.24 0-12.8-2.56h-51.2c-5.12 0-10.24 0-12.8 2.56h-5.12c-5.12 0-10.24 2.56-15.36 2.56-2.56 0-5.12 0-7.68 2.56h-5.12c-5.12 0-10.24 2.56-17.92 5.12-2.56 0-5.12 2.56-7.68 2.56-2.56 0-5.12 0-5.12 2.56-2.56 0-5.12 2.56-5.12 2.56-2.56 0-5.12 2.56-5.12 2.56-2.56 0-5.12 2.56-5.12 2.56-2.56 0-2.56 0-5.12 2.56v133.12h250.88v-133.12h-2.56c-2.56 0-5.12-2.56-5.12-2.56-10.24-7.68-12.8-7.68-15.36-7.68zM512 847.36c-7.68 0-15.36-7.68-15.36-15.36s7.68-15.36 15.36-15.36 15.36 7.68 15.36 15.36c0 10.24-7.68 15.36-15.36 15.36z m0-53.76c-7.68 0-15.36-7.68-15.36-15.36s7.68-15.36 15.36-15.36 15.36 7.68 15.36 15.36-7.68 15.36-15.36 15.36z m-204.8 2.56c-5.12 2.56-7.68 7.68-10.24 10.24l-2.56 2.56-7.68 7.68c-2.56 2.56-5.12 5.12-7.68 10.24l-2.56 2.56-2.56 2.56s-2.56 2.56-2.56 5.12c-2.56 2.56-5.12 7.68-7.68 10.24l-2.56 2.56c-5.12 7.68-10.24 15.36-12.8 20.48 0 0 0 2.56-2.56 2.56-2.56 5.12-5.12 7.68-5.12 12.8-2.56 2.56-2.56 5.12-5.12 7.68 0 0 0 2.56-2.56 2.56-2.56 2.56-2.56 7.68-5.12 10.24-2.56 5.12-2.56 7.68-5.12 12.8v2.56c0 2.56 0 5.12-2.56 5.12h2.56c5.12 2.56 7.68 5.12 12.8 7.68h2.56c5.12 2.56 10.24 5.12 12.8 7.68 5.12 2.56 10.24 5.12 15.36 10.24 7.68 5.12 15.36 7.68 23.04 12.8 2.56 2.56 7.68 2.56 10.24 5.12 2.56 0 5.12 2.56 7.68 2.56v-176.64z m496.64 135.68c0-2.56-2.56-5.12-2.56-7.68-2.56-7.68-5.12-17.92-10.24-25.6-2.56-2.56-2.56-7.68-5.12-10.24v-2.56c-2.56-2.56-2.56-7.68-5.12-10.24-5.12-7.68-7.68-15.36-12.8-23.04-2.56-2.56-5.12-5.12-7.68-10.24 0 0 0-2.56-2.56-2.56 0-2.56-2.56-2.56-2.56-5.12s-2.56-2.56-2.56-5.12v-2.56c-5.12-7.68-10.24-12.8-17.92-17.92l-2.56-2.56c-2.56-2.56-7.68-5.12-10.24-10.24l-2.56-2.56v184.32c7.68-2.56 15.36-7.68 23.04-10.24 17.92-7.68 40.96-20.48 61.44-35.84z" fill="#FEFEFE" p-id="3045"></path><path d="M496.64 778.24c0 5.12 2.56 10.24 7.68 12.8s10.24 2.56 15.36 0 7.68-7.68 7.68-12.8-2.56-10.24-7.68-12.8-10.24-2.56-15.36 0-7.68 7.68-7.68 12.8zM504.32 847.36c5.12 2.56 10.24 2.56 15.36 0 5.12-2.56 7.68-7.68 7.68-12.8s-2.56-10.24-7.68-12.8c-5.12-2.56-10.24-2.56-15.36 0-5.12 2.56-7.68 7.68-7.68 12.8s2.56 10.24 7.68 12.8z" fill="#E9A2AA" p-id="3046"></path><path d="M271.36 491.52c64 38.4 133.12 7.68 199.68-104.96 30.72-53.76 46.08-102.4 38.4-143.36-71.68 0-140.8 33.28-186.88 87.04-25.6 30.72-46.08 71.68-51.2 115.2v46.08z" fill="#222C3C" p-id="3047"></path></svg>