<svg t="1584671620306" class="icon" viewBox="0 0 1024 1024" version="1.1" xmlns="http://www.w3.org/2000/svg" p-id="5801" width="200" height="200"><path d="M472.064 636.459886l-7.928686 122.792228-46.021485 13.253486 109.538742 140.609829 99.210972-137.040458-53.072457-16.822857-10.620343-121.6512z" fill="#F2C7B6" p-id="5802"></path><path d="M475.048229 647.694629l94.880914 65.067885-2.048-66.7648z" fill="#CB7E4A" p-id="5803"></path><path d="M506.616686 117.467429v0.760685h-5.705143c-232.009143 15.623314-310.506057 330.898286-310.506057 330.898286 0 31.246629 176.040229 103.189943 176.040228 103.189943h148.333715v-0.789943h142.657828s176.040229-71.8848 176.040229-103.160686c0 0-78.496914-315.274971-310.506057-330.898285h-16.354743z" fill="#3C2714" p-id="5804"></path><path d="M494.036114 264.367543h47.425829c88.561371 0 132.827429 44.529371 132.827428 133.558857v114.4832c0 89.058743-44.266057 133.588114-132.827428 133.588114h-47.425829c-88.561371 0-132.827429-44.529371-132.827428-133.588114v-114.4832c0-89.029486 44.266057-133.558857 132.827428-133.558857z" fill="#F3CCBE" p-id="5805"></path><path d="M344.298057 376.744229h112.142629l31.305143-59.918629v59.918629s45.553371 0.468114 83.1488-1.375086c1.6384-0.087771 6.056229-11.644343 13.282742-34.669714 4.622629 23.230171 7.7824 34.786743 9.479315 34.669714 19.777829-1.492114 26.770286-4.798171 26.185143-8.630857V321.448229l13.984914 45.290057s46.928457 11.410286 49.532343 0c2.633143-11.410286-16.413257-107.549257-16.413257-107.549257S513.8432 198.070857 487.716571 210.271086c-26.068114 12.141714-125.103543 35.605943-125.103542 35.605943l-44.412343 87.595885v36.600686l26.068114 6.670629z" fill="#3C2714" p-id="5806"></path><path d="M618.349714 461.736229h-11.264c-4.768914 0-8.689371-3.423086-8.689371-7.606858v-29.520457c0-4.154514 3.920457-7.606857 8.689371-7.606857h11.264c4.798171 0 8.689371 3.452343 8.689372 7.606857v29.520457c0 4.183771-3.8912 7.606857-8.689372 7.606858m-189.761828 0h-11.264c-4.798171 0-8.689371-3.423086-8.689372-7.606858v-29.520457c0-4.154514 3.8912-7.606857 8.689372-7.606857h11.264c4.768914 0 8.689371 3.452343 8.689371 7.606857v29.520457c0 4.183771-3.920457 7.606857-8.689371 7.606858" fill="#734320" p-id="5807"></path><path d="M832.980114 1044.538514s-6.085486-210.183314-40.842971-250.148571c-34.816-39.936-183.442286-45.143771-183.442286-45.143772s-43.359086 48.859429-90.375314 55.003429c-48.420571-3.8912-94.178743-55.5008-94.178743-55.5008s-148.626286 5.207771-183.383771 45.173029c-34.786743 39.936-40.842971 250.148571-40.842972 250.148571l313.987657 8.513829v0.643657l319.0784-8.689372z" fill="#FFCF5A" p-id="5808"></path><path d="M528.822857 541.4912c-6.816914 3.510857-24.3712 0-24.3712 0 7.694629-6.875429 13.7216-13.370514 18.051657-19.514514 6.495086-9.245257 4.739657-57.256229 6.319543-72.265143 0 0 6.816914 88.239543 0 91.779657z" fill="#CB7E4A" p-id="5809"></path><path d="M694.740114 201.259886l-18.783085 28.086857h-18.344229v29.930057l-28.701257-9.567086-58.221714 23.932343-60.737829-23.932343-60.679314 23.932343-11.234743-28.730514h-41.457372l-24.927085-23.903086-27.765029 9.567086-12.580571-34.377143c-10.6496 10.0352-20.6848 20.655543-30.134857 31.861029l26.068114 33.616457 44.412343-14.336 15.36 35.84 36.688457-9.537829 14.336 35.869257 98.7136-21.533257 63.488 21.533257 28.672-31.100343 63.751314 9.567086V244.911543l40.667429 0.6144a409.102629 409.102629 0 0 0-38.619429-44.266057" fill="#55361C" p-id="5810"></path><path d="M446.581029 512.4096c0 10.532571-14.862629 19.104914-33.206858 19.104914s-33.206857-8.572343-33.206857-19.104914c0-10.532571 14.862629-19.075657 33.206857-19.075657s33.206857 8.543086 33.206858 19.075657m202.839771 0.234057c0 10.532571-14.862629 19.075657-33.206857 19.075657s-33.206857-8.543086-33.206857-19.075657c0-10.532571 14.862629-19.075657 33.206857-19.075657s33.206857 8.543086 33.206857 19.075657" fill="#F19680" opacity=".555" p-id="5811"></path></svg>