<svg t="1595228268795" class="icon" viewBox="0 0 1024 1024" version="1.1" xmlns="http://www.w3.org/2000/svg" p-id="16496" width="48" height="48"><path d="M961.12 576.128A31.04 31.04 0 0 1 992 607.36V962.4c0 16.448-12.992 29.6-30.88 29.6H94.88C76.992 992 64 978.88 64 960.768v-481.6c0-21.376 19.52-36.16 40.64-29.6h427.424c6.496 0 14.624 3.296 21.12 9.856l120.288 115.072 287.648 1.632zM320 672v128h416V672H320zM126.624 412.928c-17.728 0-30.624-13.12-30.624-31.104V96.768c0-14.72 11.296-27.84 25.792-31.136C124.992 64 129.856 64 133.088 64h560.96c17.728 0 39.584 14.72 39.584 32.768v416.096c0 18.016-10.496 31.136-28.224 31.136-17.76 0-34.624-14.72-34.624-32.768l5.504-383.36h-519.04v253.952c0 18.016-12.896 31.104-30.624 31.104z m644.8-221.12c-17.76 0-32.256-13.12-32.256-31.168 0-18.016 12.896-31.104 30.624-31.104h43.52c17.728 0 49.984 13.12 49.984 31.104v350.592c0 18.016-15.488 32.768-33.216 32.768s-28.608-14.72-28.608-32.768V191.776h-30.08z m127.328 42.56h-4.832c-17.728 0-30.624-13.12-30.624-31.104 0-18.048 12.896-31.136 30.624-31.136h35.456c17.728 0 30.624 13.12 30.624 31.136v307.968C960 529.248 947.104 544 929.376 544c-17.728 0-30.624-13.12-30.624-31.136V234.368zM608.48 161.92c18.24 0 31.52 13.952 31.52 31.04 0 17.12-13.28 31.104-31.52 31.104H223.52A30.816 30.816 0 0 1 192 192.96c0-17.12 13.28-31.072 31.52-31.072h384.96z m-1.664 95.328c18.24 0 33.184 15.776 33.184 32.896s-13.28 29.76-31.52 29.76H223.52c-18.24 0-31.52-12.64-31.52-29.76s13.28-32.896 31.52-32.896h383.296z m0 97.12c18.24 0 33.184 15.872 33.184 32.992 0 17.12-14.944 27.552-33.184 27.552H223.52c-18.24 0-31.52-16.96-31.52-34.08 0-17.12 13.28-26.464 31.52-26.464h383.296z" fill="#ffffff" p-id="16497"></path></svg>