<svg t="1595228323083" class="icon" viewBox="0 0 1024 1024" version="1.1" xmlns="http://www.w3.org/2000/svg" p-id="17517" width="64" height="64"><path d="M291.52663666 1021.07906048h-0.01514496c-14.63298731 0-28.42720711-7.03748665-36.87778304-18.82682141-7.96945067-11.12181533-10.42284317-25.00923165-6.92798123-38.63336846l9.13440427-70.92822243H61.51346517c-34.46982315 0-62.52424419-28.05442105-62.52424533-62.52540928V378.04543773c0-34.46982315 28.05442105-62.52424419 62.52424533-62.5242442h699.59330248c34.46982315 0 62.52424419 28.05442105 62.52424419 62.5242442v452.11980117c0 34.46982315-28.05442105 62.52540928-62.52424419 62.52540928H480.85612089L318.61880605 1012.50383417a30.41694834 30.41694834 0 0 1-2.71900218 1.80218311c-7.50346809 4.42682482-15.92259129 6.77304206-24.37316721 6.7730432z m1.49114083-192.01703367a31.77528434 31.77528434 0 0 1 23.89087574 10.81193813 31.80673821 31.80673821 0 0 1 7.65840725 25.07213938l-9.11809422 70.80473714 136.03167459-100.4586405a31.77528434 31.77528434 0 0 1 18.90487296-6.22900907h290.72125384l-1.1032121-451.01658908-698.49009038 1.10321095 1.10321096 451.01658909 230.40110136-1.10437604z" fill="#ffffff" p-id="17518"></path><path d="M959.94344107 618.87054734H891.88799488v-63.62745628h64.0468389V153.95023303H359.42597859v69.06429554h-63.62745628v-73.07290283c0-32.87034083 26.74967325-59.62001408 59.62001408-59.62001408h604.52490468c32.87034083 0 59.62001408 26.74967325 59.62001408 59.62001408v409.30774244c0 32.87150592-26.74967325 59.62117917-59.62001408 59.62117916z" fill="#ffffff" p-id="17519"></path></svg>