<svg t="1595228546851" class="icon" viewBox="0 0 1024 1024" version="1.1" xmlns="http://www.w3.org/2000/svg" p-id="19224" width="64" height="64"><path d="M866.816 169.984l-339.968-115.712c-4.096-1.536-9.728-2.048-14.848-2.048s-10.752 0.512-14.848 2.048L157.184 169.984c-8.192 2.56-14.848 12.288-14.848 20.992v482.304c0 8.704 5.632 20.48 12.8 26.112l344.576 268.8c3.584 2.56 8.192 4.096 12.8 4.096s9.216-1.536 12.8-4.096l344.576-268.8c6.656-5.632 12.8-16.896 12.8-26.112V190.976c-0.512-8.704-7.68-17.92-15.872-20.992z m-56.832 484.352L512 886.272l-297.984-232.448V226.816L512 124.928l297.984 101.376v428.032z" p-id="19225" fill="#ffffff"></path><path d="M286.72 605.696c2.56 2.56 6.656 2.56 9.216 0L409.6 487.424l104.96 110.592c2.56 2.56 6.656 2.56 9.216 0l226.304-237.056c2.56-2.56 2.56-7.168 0-9.728l-32.768-34.304c-2.56-2.56-6.656-2.56-9.216 0l-188.928 198.144L414.72 404.48c-2.56-2.56-6.656-2.56-9.216 0l-151.04 157.184c-2.56 2.56-2.56 7.168 0 9.728l32.256 34.304z" p-id="19226" fill="#ffffff"></path></svg>